<svg width="40" height="41" viewBox="0 0 40 41" fill="none" xmlns="http://www.w3.org/2000/svg">
<rect x="0.25" y="0.616024" width="39.5" height="39.5" rx="7.75" stroke="#DDE3F0" stroke-width="0.5"/>
<path d="M14 15.366C13.9117 15.3648 13.824 15.3811 13.742 15.414C13.66 15.447 13.5854 15.4959 13.5225 15.5579C13.4596 15.6199 13.4096 15.6939 13.3755 15.7754C13.3414 15.8569 13.3239 15.9443 13.3239 16.0327C13.3239 16.121 13.3414 16.2085 13.3755 16.29C13.4096 16.3715 13.4596 16.4454 13.5225 16.5075C13.5854 16.5695 13.66 16.6184 13.742 16.6513C13.824 16.6843 13.9117 16.7006 14 16.6994H26C26.0884 16.7006 26.1761 16.6843 26.258 16.6513C26.34 16.6184 26.4146 16.5695 26.4775 16.5075C26.5405 16.4454 26.5904 16.3715 26.6245 16.29C26.6586 16.2085 26.6762 16.121 26.6762 16.0327C26.6762 15.9443 26.6586 15.8569 26.6245 15.7754C26.5904 15.6939 26.5405 15.6199 26.4775 15.5579C26.4146 15.4959 26.34 15.447 26.258 15.414C26.1761 15.3811 26.0884 15.3648 26 15.366H14ZM14 19.6994C13.9117 19.6981 13.824 19.7144 13.742 19.7474C13.66 19.7803 13.5854 19.8292 13.5225 19.8913C13.4596 19.9533 13.4096 20.0272 13.3755 20.1087C13.3414 20.1902 13.3239 20.2777 13.3239 20.366C13.3239 20.4544 13.3414 20.5418 13.3755 20.6234C13.4096 20.7049 13.4596 20.7788 13.5225 20.8408C13.5854 20.9028 13.66 20.9517 13.742 20.9847C13.824 21.0176 13.9117 21.0339 14 21.0327H26C26.0884 21.0339 26.1761 21.0176 26.258 20.9847C26.34 20.9517 26.4146 20.9028 26.4775 20.8408C26.5405 20.7788 26.5904 20.7049 26.6245 20.6234C26.6586 20.5418 26.6762 20.4544 26.6762 20.366C26.6762 20.2777 26.6586 20.1902 26.6245 20.1087C26.5904 20.0272 26.5405 19.9533 26.4775 19.8913C26.4146 19.8292 26.34 19.7803 26.258 19.7474C26.1761 19.7144 26.0884 19.6981 26 19.6994H14ZM14 24.0327C13.9117 24.0314 13.824 24.0478 13.742 24.0807C13.66 24.1136 13.5854 24.1626 13.5225 24.2246C13.4596 24.2866 13.4096 24.3605 13.3755 24.442C13.3414 24.5235 13.3239 24.611 13.3239 24.6994C13.3239 24.7877 13.3414 24.8752 13.3755 24.9567C13.4096 25.0382 13.4596 25.1121 13.5225 25.1741C13.5854 25.2362 13.66 25.2851 13.742 25.318C13.824 25.351 13.9117 25.3673 14 25.366H26C26.0884 25.3673 26.1761 25.351 26.258 25.318C26.34 25.2851 26.4146 25.2362 26.4775 25.1741C26.5405 25.1121 26.5904 25.0382 26.6245 24.9567C26.6586 24.8752 26.6762 24.7877 26.6762 24.6994C26.6762 24.611 26.6586 24.5235 26.6245 24.442C26.5904 24.3605 26.5405 24.2866 26.4775 24.2246C26.4146 24.1626 26.34 24.1136 26.258 24.0807C26.1761 24.0478 26.0884 24.0314 26 24.0327H14Z" fill="white"/>
</svg>
