<svg width="16" height="16" viewBox="0 0 16 16" fill="none" xmlns="http://www.w3.org/2000/svg">
<path d="M14 4.66667V4.16667C14 2.972 13.028 2 11.8333 2H4.16667C2.972 2 2 2.972 2 4.16667V4.66667H14ZM2 5.66667V11.8333C2 13.028 2.972 14 4.16667 14H11.8333C13.028 14 14 13.028 14 11.8333V5.66667H2ZM5.16667 12C4.70633 12 4.33333 11.627 4.33333 11.1667C4.33333 10.7063 4.70633 10.3333 5.16667 10.3333C5.627 10.3333 6 10.7063 6 11.1667C6 11.627 5.627 12 5.16667 12ZM5.16667 9C4.70633 9 4.33333 8.627 4.33333 8.16667C4.33333 7.70633 4.70633 7.33333 5.16667 7.33333C5.627 7.33333 6 7.70633 6 8.16667C6 8.627 5.627 9 5.16667 9ZM8 12C7.53967 12 7.16667 11.627 7.16667 11.1667C7.16667 10.7063 7.53967 10.3333 8 10.3333C8.46033 10.3333 8.83333 10.7063 8.83333 11.1667C8.83333 11.627 8.46033 12 8 12ZM8 9C7.53967 9 7.16667 8.627 7.16667 8.16667C7.16667 7.70633 7.53967 7.33333 8 7.33333C8.46033 7.33333 8.83333 7.70633 8.83333 8.16667C8.83333 8.627 8.46033 9 8 9ZM10.8333 9C10.373 9 10 8.627 10 8.16667C10 7.70633 10.373 7.33333 10.8333 7.33333C11.2937 7.33333 11.6667 7.70633 11.6667 8.16667C11.6667 8.627 11.2937 9 10.8333 9Z" fill="url(#paint0_linear_450_2374)"/>
<defs>
<linearGradient id="paint0_linear_450_2374" x1="8" y1="2" x2="8" y2="14" gradientUnits="userSpaceOnUse">
<stop stop-color="#F0DE41"/>
<stop offset="1" stop-color="#F78009"/>
</linearGradient>
</defs>
</svg>
