<svg width="40" height="40" viewBox="0 0 40 40" fill="none" xmlns="http://www.w3.org/2000/svg">
<rect x="0.25" y="0.25" width="39.5" height="39.5" rx="7.75" stroke="#DDE3F0" stroke-width="0.5"/>
<path d="M25.1621 14.3262C25.03 14.3293 24.9046 14.3845 24.8131 14.4798L20 19.293L15.1868 14.4798C15.1402 14.4318 15.0845 14.3937 15.0228 14.3676C14.9612 14.3416 14.895 14.3281 14.8281 14.3281C14.7286 14.3282 14.6314 14.3579 14.5488 14.4135C14.4663 14.4691 14.4023 14.548 14.3649 14.6402C14.3274 14.7324 14.3184 14.8337 14.3389 14.9311C14.3594 15.0285 14.4084 15.1175 14.4798 15.1869L19.293 20L14.4798 24.8132C14.4318 24.8592 14.3935 24.9144 14.3671 24.9755C14.3407 25.0365 14.3268 25.1023 14.3261 25.1688C14.3254 25.2353 14.338 25.3013 14.3632 25.3629C14.3883 25.4245 14.4255 25.4804 14.4725 25.5274C14.5196 25.5745 14.5755 25.6117 14.6371 25.6368C14.6987 25.662 14.7647 25.6746 14.8312 25.6739C14.8977 25.6732 14.9635 25.6593 15.0245 25.6329C15.0856 25.6065 15.1408 25.5682 15.1868 25.5202L20 20.707L24.8131 25.5202C24.8592 25.5682 24.9144 25.6065 24.9755 25.6329C25.0365 25.6593 25.1022 25.6732 25.1688 25.6739C25.2353 25.6746 25.3013 25.662 25.3629 25.6368C25.4244 25.6117 25.4804 25.5745 25.5274 25.5274C25.5745 25.4804 25.6116 25.4245 25.6368 25.3629C25.6619 25.3013 25.6745 25.2353 25.6739 25.1688C25.6732 25.1023 25.6592 25.0365 25.6329 24.9755C25.6065 24.9144 25.5682 24.8592 25.5202 24.8132L20.707 20L25.5202 15.1869C25.5929 15.1171 25.6428 15.0269 25.6634 14.9283C25.684 14.8296 25.6743 14.7271 25.6356 14.634C25.5969 14.541 25.531 14.4618 25.4465 14.4068C25.362 14.3519 25.2628 14.3238 25.1621 14.3262Z" fill="white"/>
</svg>
