<svg width="21" height="21" viewBox="0 0 21 21" fill="none" xmlns="http://www.w3.org/2000/svg">
<path d="M17.7842 7.04793C16.8475 4.94459 15.6988 3.83334 14.4613 3.83334C13.1559 3.83334 12.3959 4.28376 11.785 4.64543C11.3267 4.91668 10.9959 5.11251 10.5 5.11251C10.0067 5.11251 9.67585 4.91668 9.21794 4.64543C8.6071 4.28376 7.8471 3.83334 6.54168 3.83334C5.30335 3.83334 4.15418 4.94459 3.2171 7.04793C1.87043 10.0717 0.935018 15.5988 2.53502 17.3767C3.03377 17.9313 3.58543 18.0267 3.9571 18.0067C5.44252 17.9321 6.85627 16.0046 7.99252 14.4554C8.27543 14.07 8.61752 13.6033 8.79627 13.4171H12.2067C12.3854 13.6033 12.7275 14.07 13.0104 14.4554C14.1467 16.0046 15.56 17.9321 17.0458 18.0067C17.0738 18.0079 17.1025 18.0088 17.1321 18.0088C17.5009 18.0088 18.0063 17.8896 18.4679 17.3767C20.0671 15.5992 19.1313 10.0721 17.7842 7.04793ZM8.20835 10.0833H7.58335V10.7083C7.58335 11.0538 7.30335 11.3333 6.95835 11.3333C6.61335 11.3333 6.33335 11.0538 6.33335 10.7083V10.0833H5.70835C5.36335 10.0833 5.08335 9.80376 5.08335 9.45834C5.08335 9.11293 5.36335 8.83334 5.70835 8.83334H6.33335V8.20834C6.33335 7.86293 6.61335 7.58334 6.95835 7.58334C7.30335 7.58334 7.58335 7.86293 7.58335 8.20834V8.83334H8.20835C8.55335 8.83334 8.83335 9.11293 8.83335 9.45834C8.83335 9.80376 8.55335 10.0833 8.20835 10.0833ZM12.375 10.0833C12.03 10.0833 11.75 9.80334 11.75 9.45834C11.75 9.11334 12.03 8.83334 12.375 8.83334C12.72 8.83334 13 9.11334 13 9.45834C13 9.80334 12.72 10.0833 12.375 10.0833ZM14.0417 11.75C13.6967 11.75 13.4167 11.47 13.4167 11.125C13.4167 10.78 13.6967 10.5 14.0417 10.5C14.3867 10.5 14.6667 10.78 14.6667 11.125C14.6667 11.47 14.3867 11.75 14.0417 11.75ZM14.0417 8.41668C13.6967 8.41668 13.4167 8.13668 13.4167 7.79168C13.4167 7.44668 13.6967 7.16668 14.0417 7.16668C14.3867 7.16668 14.6667 7.44668 14.6667 7.79168C14.6667 8.13668 14.3867 8.41668 14.0417 8.41668ZM15.7084 10.0833C15.3634 10.0833 15.0834 9.80334 15.0834 9.45834C15.0834 9.11334 15.3634 8.83334 15.7084 8.83334C16.0534 8.83334 16.3334 9.11334 16.3334 9.45834C16.3334 9.80334 16.0534 10.0833 15.7084 10.0833Z" fill="url(#paint0_linear_553_8525)"/>
<defs>
<linearGradient id="paint0_linear_553_8525" x1="10.5011" y1="3.83334" x2="10.5011" y2="18.0091" gradientUnits="userSpaceOnUse">
<stop stop-color="#F0DE41"/>
<stop offset="1" stop-color="#F78009"/>
</linearGradient>
</defs>
</svg>
