<svg width="16" height="16" viewBox="0 0 16 16" fill="none" xmlns="http://www.w3.org/2000/svg">
<path d="M5.83331 1.33331C5.06335 1.33331 4.43437 1.91876 4.35024 2.66665H3.49998C2.86166 2.66665 2.33331 3.19499 2.33331 3.83331V5.83331C2.33331 7.02396 3.30933 7.99998 4.49998 7.99998H4.51626C4.96191 9.39092 6.18199 10.4354 7.66665 10.6302V11.6666H6.49998C5.30531 11.6666 4.33331 12.6386 4.33331 13.8333V14.1666C4.33331 14.443 4.55698 14.6666 4.83331 14.6666H11.5C11.7763 14.6666 12 14.443 12 14.1666V13.8333C12 12.6386 11.028 11.6666 9.83331 11.6666H8.66665V10.6302C10.1513 10.4354 11.3714 9.39092 11.817 7.99998H11.8333C13.024 7.99998 14 7.02396 14 5.83331V3.83331C14 3.19499 13.4716 2.66665 12.8333 2.66665H11.9831C11.8989 1.91876 11.2699 1.33331 10.5 1.33331H5.83331ZM3.49998 3.66665H4.33331V6.83331C4.33331 6.88431 4.33914 6.93383 4.34113 6.98435C3.76851 6.9075 3.33331 6.42887 3.33331 5.83331V3.83331C3.33331 3.73496 3.40163 3.66665 3.49998 3.66665ZM12 3.66665H12.8333C12.9317 3.66665 13 3.73496 13 3.83331V5.83331C13 6.42887 12.5648 6.9075 11.9922 6.98435C11.9942 6.93383 12 6.88431 12 6.83331V3.66665Z" fill="url(#paint0_linear_450_2370)"/>
<defs>
<linearGradient id="paint0_linear_450_2370" x1="8.16665" y1="1.33331" x2="8.16665" y2="14.6666" gradientUnits="userSpaceOnUse">
<stop stop-color="#F0DE41"/>
<stop offset="1" stop-color="#F78009"/>
</linearGradient>
</defs>
</svg>
