<svg width="32" height="32" viewBox="0 0 32 32" fill="none" xmlns="http://www.w3.org/2000/svg">
<rect x="0.25" y="0.25" width="31.5" height="31.5" rx="7.75" stroke="#DDE3F0" stroke-width="0.5"/>
<path d="M21.25 12.3542V19.6458C21.25 20.5296 20.5296 21.25 19.6458 21.25H18.0417V17.1667H19.0975C19.2462 17.1667 19.3717 17.0558 19.3892 16.91L19.4971 16.035C19.5087 15.9533 19.4825 15.8688 19.4271 15.8075C19.3717 15.7433 19.2929 15.7083 19.2083 15.7083H18.0417V14.6875C18.0417 14.3667 18.3042 14.1042 18.625 14.1042H19.2083C19.3687 14.1042 19.5 13.9729 19.5 13.8125V12.8267C19.5 12.6779 19.3833 12.5525 19.2346 12.5379C19.2171 12.535 18.8058 12.5 18.2837 12.5C17.0004 12.5 16.2917 13.2642 16.2917 14.6496V15.7083H15.125C14.9646 15.7083 14.8333 15.8396 14.8333 16V16.875C14.8333 17.0354 14.9646 17.1667 15.125 17.1667H16.2917V21.25H12.3542C11.4704 21.25 10.75 20.5296 10.75 19.6458V12.3542C10.75 11.4704 11.4704 10.75 12.3542 10.75H19.6458C20.5296 10.75 21.25 11.4704 21.25 12.3542Z" fill="#DDE3F0"/>
</svg>
