<svg width="26" height="27" viewBox="0 0 26 27" fill="none" xmlns="http://www.w3.org/2000/svg">
<path d="M22.4694 9.01245C21.2517 6.27812 19.7584 4.8335 18.1496 4.8335C16.4526 4.8335 15.4646 5.41904 14.6705 5.8892C14.0747 6.24183 13.6446 6.49641 13 6.49641C12.3587 6.49641 11.9286 6.24183 11.3333 5.8892C10.5392 5.41904 9.5512 4.8335 7.85416 4.8335C6.24433 4.8335 4.75041 6.27812 3.5322 9.01245C1.78153 12.9433 0.565493 20.1285 2.64549 22.4398C3.29387 23.1608 4.01103 23.2848 4.4942 23.2588C6.42524 23.1619 8.26312 20.6561 9.74024 18.6422C10.108 18.1412 10.5527 17.5345 10.7851 17.2924H15.2187C15.451 17.5345 15.8957 18.1412 16.2635 18.6422C17.7407 20.6561 19.578 23.1619 21.5096 23.2588C21.5459 23.2605 21.5832 23.2615 21.6217 23.2615C22.1011 23.2615 22.7581 23.1066 23.3583 22.4398C25.4372 20.1291 24.2206 12.9439 22.4694 9.01245ZM10.0208 12.9585H9.20833V13.771C9.20833 14.22 8.84433 14.5835 8.39583 14.5835C7.94733 14.5835 7.58333 14.22 7.58333 13.771V12.9585H6.77083C6.32233 12.9585 5.95833 12.595 5.95833 12.146C5.95833 11.697 6.32233 11.3335 6.77083 11.3335H7.58333V10.521C7.58333 10.072 7.94733 9.7085 8.39583 9.7085C8.84433 9.7085 9.20833 10.072 9.20833 10.521V11.3335H10.0208C10.4693 11.3335 10.8333 11.697 10.8333 12.146C10.8333 12.595 10.4693 12.9585 10.0208 12.9585ZM15.4375 12.9585C14.989 12.9585 14.625 12.5945 14.625 12.146C14.625 11.6975 14.989 11.3335 15.4375 11.3335C15.886 11.3335 16.25 11.6975 16.25 12.146C16.25 12.5945 15.886 12.9585 15.4375 12.9585ZM17.6042 15.1252C17.1557 15.1252 16.7917 14.7612 16.7917 14.3127C16.7917 13.8642 17.1557 13.5002 17.6042 13.5002C18.0527 13.5002 18.4167 13.8642 18.4167 14.3127C18.4167 14.7612 18.0527 15.1252 17.6042 15.1252ZM17.6042 10.7918C17.1557 10.7918 16.7917 10.4278 16.7917 9.97933C16.7917 9.53083 17.1557 9.16683 17.6042 9.16683C18.0527 9.16683 18.4167 9.53083 18.4167 9.97933C18.4167 10.4278 18.0527 10.7918 17.6042 10.7918ZM19.7708 12.9585C19.3223 12.9585 18.9583 12.5945 18.9583 12.146C18.9583 11.6975 19.3223 11.3335 19.7708 11.3335C20.2193 11.3335 20.5833 11.6975 20.5833 12.146C20.5833 12.5945 20.2193 12.9585 19.7708 12.9585Z" fill="white"/>
</svg>
