<svg width="20" height="20" viewBox="0 0 20 20" fill="none" xmlns="http://www.w3.org/2000/svg">
<rect width="20" height="20" rx="10" fill="url(#paint0_linear_318_3320)"/>
<path d="M8.75 4.75C7.85702 4.75 7.125 5.48202 7.125 6.375C7.125 6.69672 7.22144 6.99677 7.38477 7.25H6.125C5.78 7.25 5.5 7.53 5.5 7.875V9.375C5.5 9.72 5.78 10 6.125 10H9.625V7.25H8.75C8.26248 7.25 7.875 6.86252 7.875 6.375C7.875 5.88748 8.26248 5.5 8.75 5.5C9.23752 5.5 9.625 5.88748 9.625 6.375V7.25H10.375V6.375C10.375 5.88748 10.7625 5.5 11.25 5.5C11.7375 5.5 12.125 5.88748 12.125 6.375C12.125 6.86252 11.7375 7.25 11.25 7.25H10.375V10H13.875C14.22 10 14.5 9.72 14.5 9.375V7.875C14.5 7.53 14.22 7.25 13.875 7.25H12.6152C12.7786 6.99677 12.875 6.69672 12.875 6.375C12.875 5.48202 12.143 4.75 11.25 4.75C10.7379 4.75 10.2985 5.00562 10 5.37939C9.70147 5.00562 9.2621 4.75 8.75 4.75ZM6 10.75V13.375C6 14.27 6.73 15 7.625 15H9.625V10.75H6ZM10.375 10.75V15H12.375C13.27 15 14 14.27 14 13.375V10.75H10.375Z" fill="#DDE3F0"/>
<defs>
<linearGradient id="paint0_linear_318_3320" x1="10" y1="0" x2="10" y2="20" gradientUnits="userSpaceOnUse">
<stop stop-color="#F0DE41"/>
<stop offset="1" stop-color="#F78009"/>
</linearGradient>
</defs>
</svg>
