<svg width="20" height="20" viewBox="0 0 20 20" fill="none" xmlns="http://www.w3.org/2000/svg">
<rect width="20" height="20" rx="10" fill="url(#paint0_linear_318_3327)"/>
<path d="M7.11182 5.99752C7.05232 5.99887 6.99401 6.01435 6.94168 6.04268C6.88935 6.07102 6.84452 6.1114 6.81089 6.16049C6.77726 6.20958 6.75579 6.26597 6.74826 6.325C6.74072 6.38403 6.74735 6.444 6.76758 6.49996H6.125C5.6425 6.49996 5.25 6.89246 5.25 7.37496V8.87496C5.25 9.08221 5.418 9.24996 5.625 9.24996C5.89325 9.24996 6.25 9.31471 6.25 9.87496C6.25 10.0777 6.09292 10.2653 5.81592 10.5791C5.36592 11.0886 4.75 11.7865 4.75 13.125C4.75 13.1352 4.75071 13.1455 4.75146 13.1557C4.77571 13.4477 5.04125 14 5.875 14H7.125C7.7295 14 8.10236 13.7297 8.23486 13.1884L8.66357 11.25H10.1206C10.7328 11.25 11.2746 10.8414 11.4429 10.2529L11.6577 9.49996H13.875C13.9743 9.49996 14.0696 9.46035 14.1401 9.3901L14.2803 9.24996H14.375C14.8575 9.24996 15.25 8.85746 15.25 8.37496V7.37496C15.25 6.93089 14.9164 6.56697 14.4873 6.5112C14.4629 6.43456 14.4145 6.3678 14.3493 6.32076C14.284 6.27372 14.2054 6.2489 14.125 6.24996H13.625C13.5466 6.24896 13.4699 6.27253 13.4056 6.31737C13.3413 6.36222 13.2927 6.42607 13.2666 6.49996H8.21338L7.29248 6.03952C7.23672 6.01061 7.1746 5.99617 7.11182 5.99752ZM7.875 7.74996H8.625C8.832 7.74996 9 7.91771 9 8.12496C9 8.33221 8.832 8.49996 8.625 8.49996H7.875C7.668 8.49996 7.5 8.33221 7.5 8.12496C7.5 7.91771 7.668 7.74996 7.875 7.74996ZM10.0479 9.49996H10.8779L10.7217 10.0468C10.6445 10.3169 10.4014 10.5 10.1206 10.5H8.82959L8.94238 9.9902C8.97932 9.82368 9.07977 9.68757 9.21387 9.60104C9.31272 9.77043 9.4365 9.96673 9.60986 10.1401C9.64442 10.1761 9.68581 10.2048 9.7316 10.2246C9.7774 10.2444 9.82669 10.2549 9.87658 10.2554C9.92647 10.2559 9.97596 10.2464 10.0221 10.2276C10.0683 10.2087 10.1103 10.1808 10.1456 10.1455C10.1809 10.1103 10.2087 10.0683 10.2276 10.0221C10.2465 9.97592 10.2559 9.92643 10.2554 9.87654C10.2549 9.82665 10.2444 9.77737 10.2247 9.73157C10.2049 9.68577 10.1761 9.64438 10.1401 9.60983C10.1126 9.58228 10.0809 9.54358 10.0479 9.49996Z" fill="#DDE3F0"/>
<defs>
<linearGradient id="paint0_linear_318_3327" x1="10" y1="0" x2="10" y2="20" gradientUnits="userSpaceOnUse">
<stop stop-color="#F0DE41"/>
<stop offset="1" stop-color="#F78009"/>
</linearGradient>
</defs>
</svg>
