<svg width="14" height="14" viewBox="0 0 14 14" fill="none" xmlns="http://www.w3.org/2000/svg">
<path d="M11.5208 12.5417H8.89583C8.49304 12.5417 8.16667 12.2153 8.16667 11.8125V9.1875C8.16667 8.86521 7.90562 8.60417 7.58333 8.60417H6.41667C6.09437 8.60417 5.83333 8.86521 5.83333 9.1875V11.8125C5.83333 12.2153 5.50696 12.5417 5.10417 12.5417H2.47917C2.07637 12.5417 1.75 12.2153 1.75 11.8125V6.24546C1.75 5.57492 2.05742 4.94142 2.58388 4.52667L6.72904 1.26029C6.888 1.13546 7.112 1.13546 7.27067 1.26029L11.4164 4.52667C11.9429 4.94142 12.25 5.57463 12.25 6.24488V11.8125C12.25 12.2153 11.9236 12.5417 11.5208 12.5417Z" fill="url(#paint0_linear_399_1460)"/>
<defs>
<linearGradient id="paint0_linear_399_1460" x1="7" y1="1.16667" x2="7" y2="12.5417" gradientUnits="userSpaceOnUse">
<stop stop-color="#369DE4"/>
<stop offset="1" stop-color="#045CB9"/>
</linearGradient>
</defs>
</svg>
