<svg width="14" height="14" viewBox="0 0 14 14" fill="none" xmlns="http://www.w3.org/2000/svg">
<path d="M7.00002 1.16667C3.78352 1.16667 1.16669 3.7835 1.16669 7C1.16669 10.2165 3.78352 12.8333 7.00002 12.8333C10.2165 12.8333 12.8334 10.2165 12.8334 7C12.8334 3.7835 10.2165 1.16667 7.00002 1.16667ZM7.43752 9.77083C7.43752 10.0123 7.24152 10.2083 7.00002 10.2083C6.75852 10.2083 6.56252 10.0123 6.56252 9.77083V6.5625C6.56252 6.321 6.75852 6.125 7.00002 6.125C7.24152 6.125 7.43752 6.321 7.43752 6.5625V9.77083ZM7.00002 5.25C6.67773 5.25 6.41669 4.98896 6.41669 4.66667C6.41669 4.34438 6.67773 4.08333 7.00002 4.08333C7.32231 4.08333 7.58335 4.34438 7.58335 4.66667C7.58335 4.98896 7.32231 5.25 7.00002 5.25Z" fill="url(#paint0_linear_423_3249)"/>
<defs>
<linearGradient id="paint0_linear_423_3249" x1="7.00002" y1="1.16667" x2="7.00002" y2="12.8333" gradientUnits="userSpaceOnUse">
<stop stop-color="#369DE4"/>
<stop offset="1" stop-color="#045CB9"/>
</linearGradient>
</defs>
</svg>
