<svg width="32" height="32" viewBox="0 0 32 32" fill="none" xmlns="http://www.w3.org/2000/svg">
<rect x="0.25" y="0.25" width="31.5" height="31.5" rx="7.75" stroke="#DDE3F0" stroke-width="0.5"/>
<path d="M13.8125 10.4583C11.9631 10.4583 10.4583 11.963 10.4583 13.8124V18.1874C10.4583 20.0369 11.9631 21.5416 13.8125 21.5416H18.1875C20.037 21.5416 21.5417 20.0369 21.5417 18.1874V13.8124C21.5417 11.963 20.037 10.4583 18.1875 10.4583H13.8125ZM18.9167 12.4999C19.239 12.4999 19.5 12.761 19.5 13.0833C19.5 13.4053 19.239 13.6666 18.9167 13.6666C18.5944 13.6666 18.3333 13.4053 18.3333 13.0833C18.3333 12.761 18.5944 12.4999 18.9167 12.4999ZM16 13.0833C17.6083 13.0833 18.9167 14.3917 18.9167 15.9999C18.9167 17.6082 17.6083 18.9166 16 18.9166C14.3918 18.9166 13.0833 17.6082 13.0833 15.9999C13.0833 14.3917 14.3918 13.0833 16 13.0833ZM16 13.9583C15.7319 13.9583 15.4664 14.0111 15.2187 14.1137C14.971 14.2163 14.7459 14.3667 14.5563 14.5562C14.3667 14.7458 14.2164 14.9709 14.1138 15.2186C14.0112 15.4663 13.9583 15.7318 13.9583 15.9999C13.9583 16.268 14.0112 16.5335 14.1138 16.7812C14.2164 17.0289 14.3667 17.254 14.5563 17.4436C14.7459 17.6332 14.971 17.7836 15.2187 17.8862C15.4664 17.9888 15.7319 18.0416 16 18.0416C16.2681 18.0416 16.5336 17.9888 16.7813 17.8862C17.029 17.7836 17.2541 17.6332 17.4437 17.4436C17.6333 17.254 17.7837 17.0289 17.8863 16.7812C17.9889 16.5335 18.0417 16.268 18.0417 15.9999C18.0417 15.7318 17.9889 15.4663 17.8863 15.2186C17.7837 14.9709 17.6333 14.7458 17.4437 14.5562C17.2541 14.3667 17.029 14.2163 16.7813 14.1137C16.5336 14.0111 16.2681 13.9583 16 13.9583Z" fill="#DDE3F0"/>
</svg>
