<svg width="10" height="14" viewBox="0 0 10 14" fill="none" xmlns="http://www.w3.org/2000/svg">
<path d="M4.99997 0.5896C4.88877 0.5896 4.77752 0.631919 4.69236 0.716064L3.97458 1.42586L2.99818 1.16952C2.76572 1.10797 2.52827 1.24641 2.46498 1.4777L2.20009 2.45125L1.22654 2.71672C0.994952 2.77972 0.857682 3.01775 0.918348 3.24992L1.17413 4.22632L0.464328 4.94352C0.295745 5.11386 0.295745 5.38842 0.464328 5.55876L1.17413 6.27653L0.917779 7.25293C0.85682 7.4851 0.994382 7.72284 1.22597 7.78613L2.19952 8.0516L2.46498 9.02515C2.52827 9.25644 2.76572 9.39489 2.99818 9.33276L3.97458 9.07699L4.69236 9.78678C4.77752 9.87108 4.88942 9.91268 5.00054 9.91268C5.11167 9.91268 5.22299 9.87078 5.30816 9.78678L6.02593 9.07699L7.00176 9.33333C7.2351 9.39517 7.47167 9.25644 7.53497 9.02515L7.79986 8.0516L8.77341 7.78613C9.00499 7.72313 9.14226 7.4851 9.0816 7.25293L8.82582 6.27653L9.53562 5.55876C9.7042 5.38842 9.7042 5.11415 9.53562 4.94352L8.82582 4.22632L9.08217 3.24992C9.14312 3.01775 9.00556 2.78001 8.77398 2.71672L7.80043 2.45125L7.53497 1.4777C7.47167 1.24641 7.2351 1.10797 7.00176 1.16952L6.02536 1.42586L5.30759 0.716064C5.22242 0.631919 5.11117 0.5896 4.99997 0.5896ZM3.80027 9.72583L2.58689 10.0443C2.51455 10.0632 2.44236 10.0612 2.3744 10.0448V12.9792C2.3744 13.1405 2.46307 13.289 2.60512 13.3648C2.74716 13.4412 2.92041 13.4327 3.05458 13.3432L4.91851 12.1002C4.96809 12.0678 5.03129 12.0675 5.08029 12.1002L6.9448 13.3426C7.0183 13.3919 7.1026 13.4167 7.18747 13.4167C7.25835 13.4167 7.32894 13.3995 7.39369 13.3648C7.53573 13.289 7.62497 13.1405 7.62497 12.9792V10.0448C7.5573 10.0609 7.48482 10.0632 7.41249 10.0443L6.19911 9.72583L5.30759 10.6071C5.22242 10.6914 5.11053 10.7336 4.9994 10.7336C4.88828 10.7336 4.77695 10.6911 4.69179 10.6071L3.80027 9.72583Z" fill="url(#paint0_linear_423_3254)"/>
<defs>
<linearGradient id="paint0_linear_423_3254" x1="4.99997" y1="0.5896" x2="4.99997" y2="13.4168" gradientUnits="userSpaceOnUse">
<stop stop-color="#369DE4"/>
<stop offset="1" stop-color="#045CB9"/>
</linearGradient>
</defs>
</svg>
