<svg width="20" height="21" viewBox="0 0 20 21" fill="none" xmlns="http://www.w3.org/2000/svg">
<path d="M18.3334 10.5C18.3334 9.73624 18.0234 9.01624 17.4859 8.49416C17.6904 7.77291 17.5988 6.99416 17.2167 6.33332C16.835 5.67207 16.2067 5.20374 15.48 5.01999C15.2967 4.29332 14.8279 3.66541 14.1667 3.28332C13.5059 2.90124 12.7271 2.80957 12.0054 3.01416C11.4838 2.47666 10.7634 2.16666 10 2.16666C9.23669 2.16666 8.51627 2.47666 7.9946 3.01416C7.27377 2.80999 6.4946 2.90166 5.83335 3.28332C5.1721 3.66541 4.70335 4.29374 4.52002 5.01999C3.79335 5.20374 3.16502 5.67207 2.78335 6.33332C2.40169 6.99416 2.3096 7.77291 2.51419 8.49416C1.97669 9.01624 1.66669 9.73624 1.66669 10.5C1.66669 11.2637 1.97669 11.9837 2.51419 12.5058C2.3096 13.2271 2.40169 14.0058 2.78335 14.6667C3.16502 15.3279 3.79335 15.7962 4.52002 15.98C4.70335 16.7067 5.1721 17.335 5.83335 17.7167C6.49377 18.0979 7.27252 18.19 7.99419 17.9858C8.51627 18.5233 9.23669 18.8333 10 18.8333C10.7634 18.8333 11.4838 18.5233 12.0059 17.9858C12.7271 18.19 13.5059 18.0983 14.1667 17.7167C14.8279 17.3346 15.2967 16.7062 15.48 15.98C16.2067 15.7967 16.835 15.3279 17.2167 14.6667C17.5984 14.0058 17.6904 13.2271 17.4859 12.5058C18.0234 11.9837 18.3334 11.2637 18.3334 10.5ZM7.50002 11.75C7.50002 11.9333 7.3796 12.0958 7.20419 12.1487C7.16419 12.1612 7.12377 12.1667 7.08335 12.1667C6.94669 12.1667 6.81544 12.0992 6.73669 11.9812L5.83335 10.6262V11.75C5.83335 11.98 5.64669 12.1667 5.41669 12.1667C5.18669 12.1667 5.00002 11.98 5.00002 11.75V9.24999C5.00002 9.06666 5.12044 8.90416 5.29585 8.85124C5.47127 8.79791 5.66085 8.86582 5.76335 9.01874L6.66669 10.3737V9.24999C6.66669 9.01999 6.85335 8.83332 7.08335 8.83332C7.31335 8.83332 7.50002 9.01999 7.50002 9.24999V11.75ZM10.2084 10.0833C10.4384 10.0833 10.625 10.27 10.625 10.5C10.625 10.73 10.4384 10.9167 10.2084 10.9167H9.58335V11.3333H10.4167C10.6467 11.3333 10.8334 11.52 10.8334 11.75C10.8334 11.98 10.6467 12.1667 10.4167 12.1667H9.16669C8.93669 12.1667 8.75002 11.98 8.75002 11.75V9.24999C8.75002 9.01999 8.93669 8.83332 9.16669 8.83332H10.4167C10.6467 8.83332 10.8334 9.01999 10.8334 9.24999C10.8334 9.47999 10.6467 9.66666 10.4167 9.66666H9.58335V10.0833H10.2084ZM14.5775 11.8187C14.5496 11.9875 14.4213 12.1217 14.2542 12.1575C14.225 12.1637 14.1954 12.1667 14.1667 12.1667C14.0292 12.1667 13.8979 12.0983 13.82 11.9812L13.3334 11.2512L12.8467 11.9812C12.7517 12.1233 12.5804 12.1933 12.4125 12.1575C12.2454 12.1217 12.1171 11.9875 12.0892 11.8187L11.6725 9.31874C11.6346 9.09166 11.7879 8.87707 12.015 8.83916C12.2442 8.80166 12.4567 8.95499 12.4946 9.18166L12.7379 10.6425L12.9867 10.2692C13.1413 10.0371 13.5254 10.0371 13.68 10.2692L13.9292 10.6425L14.1725 9.18166C14.21 8.95499 14.4238 8.80207 14.6517 8.83916C14.8788 8.87707 15.0321 9.09166 14.9942 9.31874L14.5775 11.8187Z" fill="url(#paint0_linear_318_3194)"/>
<defs>
<linearGradient id="paint0_linear_318_3194" x1="10" y1="2.16666" x2="10" y2="18.8333" gradientUnits="userSpaceOnUse">
<stop stop-color="#F0DE41"/>
<stop offset="1" stop-color="#F78009"/>
</linearGradient>
</defs>
</svg>
