<svg width="14" height="14" viewBox="0 0 14 14" fill="none" xmlns="http://www.w3.org/2000/svg">
<path d="M2.1875 1.75C1.46387 1.75 0.875 2.33887 0.875 3.0625V10.3542C0.875 11.3995 1.7255 12.25 2.77083 12.25H11.2292C12.2745 12.25 13.125 11.3995 13.125 10.3542V5.39583C13.125 4.72208 12.6128 4.17164 11.9583 4.09814V10.0625C11.9583 10.304 11.7623 10.5 11.5208 10.5C11.2793 10.5 11.0833 10.304 11.0833 10.0625V3.0625C11.0833 2.33887 10.4945 1.75 9.77083 1.75H2.1875ZM3.0625 4.375H8.89583C9.13762 4.375 9.33333 4.571 9.33333 4.8125C9.33333 5.054 9.13762 5.25 8.89583 5.25H3.0625C2.82071 5.25 2.625 5.054 2.625 4.8125C2.625 4.571 2.82071 4.375 3.0625 4.375ZM3.0625 6.70833H5.10417C5.34596 6.70833 5.54167 6.90433 5.54167 7.14583V9.1875C5.54167 9.429 5.34596 9.625 5.10417 9.625H3.0625C2.82071 9.625 2.625 9.429 2.625 9.1875V7.14583C2.625 6.90433 2.82071 6.70833 3.0625 6.70833ZM6.85417 6.70833H8.89583C9.13762 6.70833 9.33333 6.90433 9.33333 7.14583C9.33333 7.38733 9.13762 7.58333 8.89583 7.58333H6.85417C6.61237 7.58333 6.41667 7.38733 6.41667 7.14583C6.41667 6.90433 6.61237 6.70833 6.85417 6.70833ZM3.5 7.58333V8.75H4.66667V7.58333H3.5ZM6.85417 8.75H8.89583C9.13762 8.75 9.33333 8.946 9.33333 9.1875C9.33333 9.429 9.13762 9.625 8.89583 9.625H6.85417C6.61237 9.625 6.41667 9.429 6.41667 9.1875C6.41667 8.946 6.61237 8.75 6.85417 8.75Z" fill="url(#paint0_linear_423_3241)"/>
<defs>
<linearGradient id="paint0_linear_423_3241" x1="7" y1="1.75" x2="7" y2="12.25" gradientUnits="userSpaceOnUse">
<stop stop-color="#369DE4"/>
<stop offset="1" stop-color="#045CB9"/>
</linearGradient>
</defs>
</svg>
