<svg width="20" height="21" viewBox="0 0 20 21" fill="none" xmlns="http://www.w3.org/2000/svg">
<path d="M3.125 3C2.09125 3 1.25 3.84125 1.25 4.875V15.2917C1.25 16.785 2.465 18 3.95833 18H16.0417C17.535 18 18.75 16.785 18.75 15.2917V8.20833C18.75 7.24583 18.0183 6.45949 17.0833 6.35449V14.875C17.0833 15.22 16.8033 15.5 16.4583 15.5C16.1133 15.5 15.8333 15.22 15.8333 14.875V4.875C15.8333 3.84125 14.9921 3 13.9583 3H3.125ZM4.375 6.75H12.7083C13.0538 6.75 13.3333 7.03 13.3333 7.375C13.3333 7.72 13.0538 8 12.7083 8H4.375C4.02958 8 3.75 7.72 3.75 7.375C3.75 7.03 4.02958 6.75 4.375 6.75ZM4.375 10.0833H7.29167C7.63708 10.0833 7.91667 10.3633 7.91667 10.7083V13.625C7.91667 13.97 7.63708 14.25 7.29167 14.25H4.375C4.02958 14.25 3.75 13.97 3.75 13.625V10.7083C3.75 10.3633 4.02958 10.0833 4.375 10.0833ZM9.79167 10.0833H12.7083C13.0538 10.0833 13.3333 10.3633 13.3333 10.7083C13.3333 11.0533 13.0538 11.3333 12.7083 11.3333H9.79167C9.44625 11.3333 9.16667 11.0533 9.16667 10.7083C9.16667 10.3633 9.44625 10.0833 9.79167 10.0833ZM5 11.3333V13H6.66667V11.3333H5ZM9.79167 13H12.7083C13.0538 13 13.3333 13.28 13.3333 13.625C13.3333 13.97 13.0538 14.25 12.7083 14.25H9.79167C9.44625 14.25 9.16667 13.97 9.16667 13.625C9.16667 13.28 9.44625 13 9.79167 13Z" fill="url(#paint0_linear_318_3494)"/>
<defs>
<linearGradient id="paint0_linear_318_3494" x1="10" y1="3" x2="10" y2="18" gradientUnits="userSpaceOnUse">
<stop stop-color="#F0DE41"/>
<stop offset="1" stop-color="#F78009"/>
</linearGradient>
</defs>
</svg>
