<svg width="40" height="41" viewBox="0 0 40 41" fill="none" xmlns="http://www.w3.org/2000/svg">
<rect x="0.25" y="0.616024" width="39.5" height="39.5" rx="7.75" stroke="#DDE3F0" stroke-width="0.5"/>
<path d="M19.6989 12.04C16.3308 12.1987 13.75 15.0924 13.75 18.4414V21.4695L12.6457 23.6912C12.6437 23.6953 12.6418 23.6993 12.64 23.7034C12.1957 24.6482 12.9149 25.7827 13.9591 25.7827H17.5C17.5 27.156 18.6267 28.2827 20 28.2827C21.3733 28.2827 22.5 27.156 22.5 25.7827H26.04C27.0843 25.7827 27.8044 24.6485 27.36 23.7034C27.3582 23.6993 27.3563 23.6953 27.3543 23.6912L26.25 21.4695V18.2827C26.25 14.7384 23.2764 11.8716 19.6989 12.04ZM19.7575 13.2884C22.6408 13.1526 25 15.4336 25 18.2827V21.616C24.9999 21.7126 25.0222 21.8078 25.0651 21.8943L26.2288 24.2365C26.3037 24.3969 26.2171 24.5327 26.04 24.5327H13.9591C13.7821 24.5327 13.6962 24.3971 13.7712 24.2365V24.2357L14.9349 21.8943C14.9778 21.8078 15.0001 21.7126 15 21.616V18.4414C15 15.7328 17.0748 13.4148 19.7575 13.2884ZM18.75 25.7827H21.25C21.25 26.4803 20.6976 27.0327 20 27.0327C19.3024 27.0327 18.75 26.4803 18.75 25.7827Z" fill="#DDE3F0"/>
<circle cx="25" cy="14.366" r="3" fill="#E61C44"/>
</svg>
