<svg width="16" height="16" viewBox="0 0 16 16" fill="none" xmlns="http://www.w3.org/2000/svg">
<path d="M7.99998 2C7.46955 2 6.96084 2.21071 6.58577 2.58579C6.21069 2.96086 5.99998 3.46957 5.99998 4C5.99998 4.53043 6.21069 5.03914 6.58577 5.41421C6.96084 5.78929 7.46955 6 7.99998 6C8.53041 6 9.03912 5.78929 9.41419 5.41421C9.78927 5.03914 9.99998 4.53043 9.99998 4C9.99998 3.46957 9.78927 2.96086 9.41419 2.58579C9.03912 2.21071 8.53041 2 7.99998 2ZM3.66665 2.66667C3.22462 2.66667 2.8007 2.84226 2.48813 3.15482C2.17557 3.46738 1.99998 3.89131 1.99998 4.33333C1.99998 4.77536 2.17557 5.19928 2.48813 5.51184C2.8007 5.82441 3.22462 6 3.66665 6C4.10867 6 4.5326 5.82441 4.84516 5.51184C5.15772 5.19928 5.33331 4.77536 5.33331 4.33333C5.33331 3.89131 5.15772 3.46738 4.84516 3.15482C4.5326 2.84226 4.10867 2.66667 3.66665 2.66667ZM12.3333 2.66667C11.8913 2.66667 11.4674 2.84226 11.1548 3.15482C10.8422 3.46738 10.6666 3.89131 10.6666 4.33333C10.6666 4.77536 10.8422 5.19928 11.1548 5.51184C11.4674 5.82441 11.8913 6 12.3333 6C12.7753 6 13.1993 5.82441 13.5118 5.51184C13.8244 5.19928 14 4.77536 14 4.33333C14 3.89131 13.8244 3.46738 13.5118 3.15482C13.1993 2.84226 12.7753 2.66667 12.3333 2.66667ZM7.99998 14C6.34598 14 4.99998 12.654 4.99998 11V7.83333C4.99998 7.19 5.52331 6.66667 6.16665 6.66667H9.83331C10.4766 6.66667 11 7.19 11 7.83333V11C11 12.654 9.65398 14 7.99998 14ZM4.33331 11V7.83333C4.33331 7.39067 4.49131 6.984 4.75365 6.66667H2.49998C1.85665 6.66667 1.33331 7.19 1.33331 7.83333V10C1.33331 11.47 2.52998 12.6667 3.99998 12.6667C4.23665 12.6667 4.46665 12.6367 4.68665 12.5767C4.68665 12.5767 4.69031 12.575 4.69331 12.574C4.46498 12.0963 4.33331 11.5637 4.33331 11ZM11.6666 11V7.83333C11.6666 7.39067 11.5086 6.984 11.2463 6.66667H13.5C14.1433 6.66667 14.6666 7.19 14.6666 7.83333V10C14.6666 11.47 13.47 12.6667 12 12.6667C11.7633 12.6667 11.5333 12.6367 11.3133 12.5767C11.3133 12.5767 11.3096 12.575 11.3066 12.574C11.535 12.0963 11.6666 11.5637 11.6666 11Z" fill="url(#paint0_linear_450_2378)"/>
<defs>
<linearGradient id="paint0_linear_450_2378" x1="7.99998" y1="2" x2="7.99998" y2="14" gradientUnits="userSpaceOnUse">
<stop stop-color="#F0DE41"/>
<stop offset="1" stop-color="#F78009"/>
</linearGradient>
</defs>
</svg>
