<svg width="20" height="20" viewBox="0 0 20 20" fill="none" xmlns="http://www.w3.org/2000/svg">
<rect width="20" height="20" rx="10" fill="url(#paint0_linear_318_3334)"/>
<path d="M10 5.5C9.60218 5.5 9.22064 5.65804 8.93934 5.93934C8.65804 6.22064 8.5 6.60218 8.5 7C8.5 7.39782 8.65804 7.77936 8.93934 8.06066C9.22064 8.34196 9.60218 8.5 10 8.5C10.3978 8.5 10.7794 8.34196 11.0607 8.06066C11.342 7.77936 11.5 7.39782 11.5 7C11.5 6.60218 11.342 6.22064 11.0607 5.93934C10.7794 5.65804 10.3978 5.5 10 5.5ZM6.75 6C6.41848 6 6.10054 6.1317 5.86612 6.36612C5.6317 6.60054 5.5 6.91848 5.5 7.25C5.5 7.58152 5.6317 7.89946 5.86612 8.13388C6.10054 8.3683 6.41848 8.5 6.75 8.5C7.08152 8.5 7.39946 8.3683 7.63388 8.13388C7.8683 7.89946 8 7.58152 8 7.25C8 6.91848 7.8683 6.60054 7.63388 6.36612C7.39946 6.1317 7.08152 6 6.75 6ZM13.25 6C12.9185 6 12.6005 6.1317 12.3661 6.36612C12.1317 6.60054 12 6.91848 12 7.25C12 7.58152 12.1317 7.89946 12.3661 8.13388C12.6005 8.3683 12.9185 8.5 13.25 8.5C13.5815 8.5 13.8995 8.3683 14.1339 8.13388C14.3683 7.89946 14.5 7.58152 14.5 7.25C14.5 6.91848 14.3683 6.60054 14.1339 6.36612C13.8995 6.1317 13.5815 6 13.25 6ZM10 14.5C8.7595 14.5 7.75 13.4905 7.75 12.25V9.875C7.75 9.3925 8.1425 9 8.625 9H11.375C11.8575 9 12.25 9.3925 12.25 9.875V12.25C12.25 13.4905 11.2405 14.5 10 14.5ZM7.25 12.25V9.875C7.25 9.543 7.3685 9.238 7.56525 9H5.875C5.3925 9 5 9.3925 5 9.875V11.5C5 12.6025 5.8975 13.5 7 13.5C7.1775 13.5 7.35 13.4775 7.515 13.4325C7.515 13.4325 7.51775 13.4313 7.52 13.4305C7.34875 13.0723 7.25 12.6727 7.25 12.25ZM12.75 12.25V9.875C12.75 9.543 12.6315 9.238 12.4347 9H14.125C14.6075 9 15 9.3925 15 9.875V11.5C15 12.6025 14.1025 13.5 13 13.5C12.8225 13.5 12.65 13.4775 12.485 13.4325C12.485 13.4325 12.4822 13.4313 12.48 13.4305C12.6512 13.0723 12.75 12.6727 12.75 12.25Z" fill="#DDE3F0"/>
<defs>
<linearGradient id="paint0_linear_318_3334" x1="10" y1="0" x2="10" y2="20" gradientUnits="userSpaceOnUse">
<stop stop-color="#F0DE41"/>
<stop offset="1" stop-color="#F78009"/>
</linearGradient>
</defs>
</svg>
