<svg width="20" height="21" viewBox="0 0 20 21" fill="none" xmlns="http://www.w3.org/2000/svg">
<path d="M10.0001 3C9.33704 3 8.70115 3.26339 8.23231 3.73223C7.76347 4.20107 7.50008 4.83696 7.50008 5.5C7.50008 6.16304 7.76347 6.79893 8.23231 7.26777C8.70115 7.73661 9.33704 8 10.0001 8C10.6631 8 11.299 7.73661 11.7678 7.26777C12.2367 6.79893 12.5001 6.16304 12.5001 5.5C12.5001 4.83696 12.2367 4.20107 11.7678 3.73223C11.299 3.26339 10.6631 3 10.0001 3ZM4.58341 3.83333C4.03088 3.83333 3.50098 4.05283 3.11028 4.44353C2.71957 4.83423 2.50008 5.36413 2.50008 5.91667C2.50008 6.4692 2.71957 6.9991 3.11028 7.38981C3.50098 7.78051 4.03088 8 4.58341 8C5.13595 8 5.66585 7.78051 6.05655 7.38981C6.44725 6.9991 6.66675 6.4692 6.66675 5.91667C6.66675 5.36413 6.44725 4.83423 6.05655 4.44353C5.66585 4.05283 5.13595 3.83333 4.58341 3.83333ZM15.4167 3.83333C14.8642 3.83333 14.3343 4.05283 13.9436 4.44353C13.5529 4.83423 13.3334 5.36413 13.3334 5.91667C13.3334 6.4692 13.5529 6.9991 13.9436 7.38981C14.3343 7.78051 14.8642 8 15.4167 8C15.9693 8 16.4992 7.78051 16.8899 7.38981C17.2806 6.9991 17.5001 6.4692 17.5001 5.91667C17.5001 5.36413 17.2806 4.83423 16.8899 4.44353C16.4992 4.05283 15.9693 3.83333 15.4167 3.83333ZM10.0001 18C7.93258 18 6.25008 16.3175 6.25008 14.25V10.2917C6.25008 9.4875 6.90425 8.83333 7.70841 8.83333H12.2917C13.0959 8.83333 13.7501 9.4875 13.7501 10.2917V14.25C13.7501 16.3175 12.0676 18 10.0001 18ZM5.41675 14.25V10.2917C5.41675 9.73833 5.61425 9.23 5.94216 8.83333H3.12508C2.32091 8.83333 1.66675 9.4875 1.66675 10.2917V13C1.66675 14.8375 3.16258 16.3333 5.00008 16.3333C5.29591 16.3333 5.58341 16.2958 5.85841 16.2208C5.85841 16.2208 5.863 16.2188 5.86675 16.2175C5.58133 15.6204 5.41675 14.9546 5.41675 14.25ZM14.5834 14.25V10.2917C14.5834 9.73833 14.3859 9.23 14.058 8.83333H16.8751C17.6792 8.83333 18.3334 9.4875 18.3334 10.2917V13C18.3334 14.8375 16.8376 16.3333 15.0001 16.3333C14.7042 16.3333 14.4167 16.2958 14.1417 16.2208C14.1417 16.2208 14.1372 16.2188 14.1334 16.2175C14.4188 15.6204 14.5834 14.9546 14.5834 14.25Z" fill="url(#paint0_linear_553_8519)"/>
<defs>
<linearGradient id="paint0_linear_553_8519" x1="10.0001" y1="3" x2="10.0001" y2="18" gradientUnits="userSpaceOnUse">
<stop stop-color="#F0DE41"/>
<stop offset="1" stop-color="#F78009"/>
</linearGradient>
</defs>
</svg>
