<svg width="24" height="24" viewBox="0 0 24 24" fill="none" xmlns="http://www.w3.org/2000/svg">
<path d="M12.25 21H11.75C10.5095 21 9.5 19.9905 9.5 18.75V5.25C9.5 4.0095 10.5095 3 11.75 3H12.25C13.4905 3 14.5 4.0095 14.5 5.25V18.75C14.5 19.9905 13.4905 21 12.25 21ZM18.25 21H17.75C16.5095 21 15.5 19.9905 15.5 18.75V10.5C15.5 9.2595 16.5095 8.25 17.75 8.25H18.25C19.4905 8.25 20.5 9.2595 20.5 10.5V18.75C20.5 19.9905 19.4905 21 18.25 21ZM6.25 21H5.75C4.5095 21 3.5 19.9905 3.5 18.75L3.49999 12.75C3.49999 11.5095 4.50949 10.5 5.74999 10.5H6.24999C7.49049 10.5 8.49999 11.5095 8.49999 12.75L8.5 18.75C8.5 19.9905 7.4905 21 6.25 21Z" fill="white"/>
</svg>
