<svg width="20" height="21" viewBox="0 0 20 21" fill="none" xmlns="http://www.w3.org/2000/svg">
<path d="M10.0041 2.58339C9.88729 2.58266 9.77261 2.61467 9.67307 2.67581C9.57354 2.73694 9.49312 2.82474 9.44095 2.92925L7.29414 7.22287L2.19648 8.00738C2.08238 8.02501 1.97539 8.0739 1.88737 8.14863C1.79936 8.22336 1.73376 8.321 1.69786 8.43073C1.66196 8.54047 1.65715 8.658 1.68397 8.7703C1.71079 8.8826 1.76819 8.98528 1.8498 9.06695L5.376 12.5932L4.59069 17.6965C4.57312 17.8107 4.58753 17.9275 4.63233 18.034C4.67713 18.1405 4.75057 18.2324 4.84448 18.2997C4.93839 18.367 5.04911 18.4069 5.16434 18.4151C5.27957 18.4232 5.39481 18.3993 5.49726 18.3459L10 15.9965L14.5028 18.3459C14.6052 18.3993 14.7205 18.4232 14.8357 18.4151C14.9509 18.4069 15.0617 18.367 15.1556 18.2997C15.2495 18.2324 15.3229 18.1405 15.3677 18.034C15.4125 17.9275 15.4269 17.8107 15.4094 17.6965L14.6241 12.5932L18.1503 9.06695C18.2319 8.98528 18.2893 8.8826 18.3161 8.7703C18.3429 8.658 18.3381 8.54047 18.3022 8.43073C18.2663 8.321 18.2007 8.22336 18.1127 8.14863C18.0247 8.0739 17.9177 8.02501 17.8036 8.00738L12.7059 7.22287L10.5591 2.92925C10.5076 2.82598 10.4284 2.73899 10.3304 2.67795C10.2325 2.6169 10.1195 2.58417 10.0041 2.58339Z" fill="url(#paint0_linear_318_3386)"/>
<defs>
<linearGradient id="paint0_linear_318_3386" x1="10" y1="2.58337" x2="10" y2="18.4166" gradientUnits="userSpaceOnUse">
<stop stop-color="#F0DE41"/>
<stop offset="1" stop-color="#F78009"/>
</linearGradient>
</defs>
</svg>
