<svg width="14" height="14" viewBox="0 0 14 14" fill="none" xmlns="http://www.w3.org/2000/svg">
<path d="M7.14585 1.16667C4.31494 1.16667 2.62502 2.7475 2.62502 5.39583V6.42293C2.25956 6.69389 2.04169 7.11725 2.04169 7.58333C2.04169 8.27079 2.5197 8.84838 3.16107 9.00179C3.74236 11.3068 5.2576 12.8333 7.00002 12.8333C7.24152 12.8333 7.43752 12.6376 7.43752 12.3958C7.43752 12.154 7.24152 11.9583 7.00002 11.9583C5.62744 11.9583 4.37133 10.5413 3.9455 8.51245C3.90291 8.31004 3.72476 8.16496 3.51768 8.16496C3.50776 8.16496 3.49518 8.16522 3.48293 8.1661C3.1691 8.15735 2.91669 7.89921 2.91669 7.58333C2.91669 7.36021 3.04459 7.16151 3.25051 7.0638C3.40305 6.99118 3.50002 6.83733 3.50002 6.66846V5.88403C4.6244 5.58887 5.32837 4.98867 5.70404 4.56926C6.18267 4.86121 7.12573 5.25 8.75002 5.25C9.37616 5.25 9.91946 5.19368 10.353 5.12297C10.4217 5.3285 10.5 5.62971 10.5 5.97917V8.89583C10.5 9.62602 9.91771 10.2083 9.18752 10.2083H8.6509C8.56815 10.0339 8.43763 9.88649 8.27449 9.78324C8.11134 9.67999 7.92226 9.62512 7.72919 9.625C7.59513 9.625 7.46238 9.65141 7.33853 9.70271C7.21468 9.75401 7.10214 9.8292 7.00735 9.924C6.91256 10.0188 6.83736 10.1313 6.78606 10.2552C6.73476 10.379 6.70835 10.5118 6.70835 10.6458C6.70835 10.7799 6.73476 10.9126 6.78606 11.0365C6.83736 11.1603 6.91256 11.2729 7.00735 11.3677C7.10214 11.4625 7.21468 11.5377 7.33853 11.589C7.46238 11.6403 7.59513 11.6667 7.72919 11.6667C7.92216 11.6664 8.11112 11.6115 8.27416 11.5083C8.43719 11.405 8.56763 11.2577 8.65033 11.0833H9.18752C10.3413 11.0833 11.2916 10.177 11.3676 9.04167H11.375C12.0193 9.04167 12.5417 8.51929 12.5417 7.875V7.29167C12.5417 6.64738 12.0193 6.125 11.375 6.125V5.97917C11.375 5.55402 11.2902 5.17634 11.2053 4.90479C11.3751 4.81019 11.5111 4.66296 11.5909 4.4821C11.6953 4.24497 11.6915 3.97514 11.5801 3.74268C10.7973 2.10526 9.18081 1.16667 7.14585 1.16667ZM5.54169 7C5.38698 7 5.2386 7.06146 5.12921 7.17086C5.01981 7.28025 4.95835 7.42863 4.95835 7.58333C4.95835 7.73804 5.01981 7.88642 5.12921 7.99581C5.2386 8.10521 5.38698 8.16667 5.54169 8.16667C5.6964 8.16667 5.84477 8.10521 5.95417 7.99581C6.06356 7.88642 6.12502 7.73804 6.12502 7.58333C6.12502 7.42863 6.06356 7.28025 5.95417 7.17086C5.84477 7.06146 5.6964 7 5.54169 7ZM8.45835 7C8.30598 7.00033 8.15979 7.06026 8.05103 7.16698C7.94228 7.27371 7.8796 7.41874 7.8764 7.57108C7.8732 7.72342 7.92973 7.87097 8.03391 7.98216C8.13808 8.09336 8.28163 8.15937 8.43386 8.1661C8.44202 8.16646 8.45019 8.16665 8.45835 8.16667C8.61306 8.16667 8.76144 8.10521 8.87083 7.99581C8.98023 7.88642 9.04169 7.73804 9.04169 7.58333C9.04169 7.42863 8.98023 7.28025 8.87083 7.17086C8.76144 7.06146 8.61306 7 8.45835 7Z" fill="url(#paint0_linear_423_3245)"/>
<defs>
<linearGradient id="paint0_linear_423_3245" x1="7.29169" y1="1.16667" x2="7.29169" y2="12.8333" gradientUnits="userSpaceOnUse">
<stop stop-color="#369DE4"/>
<stop offset="1" stop-color="#045CB9"/>
</linearGradient>
</defs>
</svg>
