<svg width="32" height="32" viewBox="0 0 32 32" fill="none" xmlns="http://www.w3.org/2000/svg">
<rect x="0.25" y="0.25" width="31.5" height="31.5" rx="7.75" stroke="#DDE3F0" stroke-width="0.5"/>
<path d="M10.7004 15.8879C14.3661 14.2753 19.1097 12.3092 19.7645 12.037C21.4822 11.3248 22.0092 11.4613 21.7464 13.0386C21.5577 14.1723 21.0132 17.9258 20.5792 20.262C20.3216 21.6474 19.7438 21.8117 18.8353 21.2123C18.3984 20.9238 16.1931 19.4655 15.7144 19.1231C15.2775 18.811 14.6749 18.4356 15.4307 17.6962C15.6996 17.4329 17.4624 15.7497 18.8359 14.4395C19.0158 14.2674 18.7898 13.9848 18.5821 14.1227C16.7309 15.3504 14.1642 17.0543 13.8376 17.2762C13.3441 17.6114 12.8701 17.7651 12.0193 17.5207C11.3765 17.336 10.7485 17.1158 10.5041 17.0318C9.5629 16.7087 9.78632 16.2901 10.7004 15.8879Z" fill="#DDE3F0"/>
</svg>
