<svg width="10" height="14" viewBox="0 0 10 14" fill="none" xmlns="http://www.w3.org/2000/svg">
<path d="M3.26309 5.79981C3.60299 5.98146 3.98368 6.07229 4.39157 6.07229C5.52005 6.07229 6.37661 5.89713 6.96805 5.55329C7.55948 5.20945 7.8518 4.70343 7.845 4.04819L7.83141 0.499537L6.26785 0.590361L6.4378 3.74328C6.45139 3.98981 6.28824 4.17794 5.95513 4.3012C5.62203 4.42447 5.11897 4.48934 4.45275 4.48934C4.2828 4.48934 4.14004 4.46339 4.01088 4.405C3.88851 4.3531 3.78654 4.26877 3.71856 4.15199C3.65058 4.03522 3.61659 3.89898 3.61659 3.73679V1.35588L2.16179 1.4013V4.04171C2.16179 4.41149 2.26377 4.74884 2.46091 5.06024C2.65806 5.37164 2.92998 5.61168 3.26988 5.79333L3.26309 5.79981Z" fill="#ABB1CC"/>
<path d="M5.64922 0L4.24881 0.0389249V1.2456H5.64922V0Z" fill="#ABB1CC"/>
<path d="M8.53841 9.78313C8.53841 9.85449 8.51801 9.91288 8.45003 9.96478C8.38885 10.0102 8.30048 10.0361 8.1985 10.0361H6.64174V8.4013L5.67641 7.58387H4.08566C3.86132 7.58387 3.65738 7.63577 3.47383 7.73957C3.29028 7.84337 3.14072 7.97961 3.02515 8.15477C2.90279 8.32345 2.8416 8.51807 2.82121 8.72567L2.73963 9.72474C2.73963 9.84801 2.69205 9.93883 2.61727 9.99722C2.53569 10.0556 2.42012 10.0816 2.25697 10.0816H1.86268C1.7743 10.0816 1.69952 10.0556 1.63834 10.0037C1.57716 9.95181 1.54997 9.89342 1.54997 9.81557L1.56356 6.05283L0 6.13716L0.135962 10.0297C0.149558 10.5162 0.271924 10.912 0.509857 11.2169C0.747791 11.5283 1.10809 11.6775 1.59075 11.6775H2.37933C2.60367 11.6775 2.80761 11.6321 2.98436 11.5477C3.16791 11.4569 3.29028 11.3401 3.37186 11.1974C3.46703 11.3855 3.59619 11.5153 3.75255 11.5802C3.90891 11.645 4.11285 11.6775 4.35758 11.6775H5.33651V11.8332C5.33651 11.911 5.29572 11.9759 5.21414 12.0278C5.13936 12.0797 4.9966 12.1316 4.78586 12.1705L2.95037 12.4754L3.30387 14L4.68389 13.6951C5.14616 13.5978 5.52005 13.468 5.80557 13.3058C6.09109 13.1372 6.30184 12.9361 6.431 12.6895C6.56696 12.443 6.63494 12.1446 6.63494 11.7878V11.6321H8.42964C8.72196 11.6321 8.98029 11.5737 9.21142 11.4439C9.44256 11.3207 9.6261 11.152 9.76207 10.9314C9.89123 10.7108 9.95921 10.4578 9.95921 10.1724V7.74606L8.38885 7.82391L8.53841 9.78313ZM5.21414 9.99073C5.14616 10.0556 5.07138 10.0816 4.97621 10.0816H4.37797C4.32359 10.0816 4.2692 10.0686 4.22842 10.0426C4.18763 10.0167 4.14684 9.97776 4.09245 9.91937L4.16043 9.10195C4.16723 9.0241 4.20122 8.95922 4.25561 8.90083C4.31679 8.84893 4.39157 8.82298 4.47995 8.82298H5.19375L5.30252 8.90083L5.31611 9.76367C5.31611 9.8545 5.28212 9.93234 5.21414 9.99073Z" fill="#ABB1CC"/>
<path d="M9.70088 6.05283H7.10401V7.13624L10 7.09082V6.24745L9.70088 6.05283Z" fill="#ABB1CC"/>
</svg>
