<svg width="14" height="14" viewBox="0 0 14 14" fill="none" xmlns="http://www.w3.org/2000/svg">
<path d="M7.00001 1.16667C6.22646 1.16667 5.4846 1.47396 4.93762 2.02094C4.39063 2.56792 4.08334 3.30979 4.08334 4.08333C4.08334 4.85688 4.39063 5.59875 4.93762 6.14573C5.4846 6.69271 6.22646 7 7.00001 7C7.77356 7 8.51542 6.69271 9.06241 6.14573C9.60939 5.59875 9.91668 4.85688 9.91668 4.08333C9.91668 3.30979 9.60939 2.56792 9.06241 2.02094C8.51542 1.47396 7.77356 1.16667 7.00001 1.16667ZM10.5061 8.16667H3.49389C2.85397 8.16667 2.33334 8.68729 2.33334 9.32721V9.77083C2.33334 10.7368 2.88314 11.5722 3.88122 12.1225C4.71159 12.581 5.81934 12.8333 7.00001 12.8333C9.24759 12.8333 11.6667 11.8749 11.6667 9.77083V9.32721C11.6667 8.68729 11.1461 8.16667 10.5061 8.16667Z" fill="#DDE3F0"/>
</svg>
