<svg width="40" height="40" viewBox="0 0 40 40" fill="none" xmlns="http://www.w3.org/2000/svg">
<rect x="0.25" y="0.25" width="39.5" height="39.5" rx="7.75" stroke="#DDE3F0" stroke-width="0.5"/>
<path d="M26.9063 15.435C26.808 15.3333 26.6567 15.3043 26.5277 15.3637L26.473 15.3887C26.4267 15.41 26.3803 15.4313 26.3337 15.4523C26.4693 15.236 26.577 15.0047 26.6513 14.7653C26.6927 14.6333 26.6477 14.489 26.5383 14.4037C26.429 14.3183 26.2783 14.3093 26.16 14.3817C25.7797 14.6127 25.4143 14.779 25.0367 14.895C24.4667 14.342 23.6903 14 22.8333 14C21.0843 14 19.6667 15.4177 19.6667 17.1667C19.6667 17.1683 19.6667 17.2343 19.6667 17.3333L19.3337 17.3067C16.0927 16.9233 15.17 14.7433 15.1317 14.6493C15.0697 14.4927 14.933 14.3783 14.768 14.344C14.6033 14.309 14.4323 14.3607 14.313 14.4797C14.247 14.546 13.6667 15.16 13.6667 16.3333C13.6667 17.1693 14.0393 17.8473 14.5217 18.3747C14.297 18.2377 14.166 18.1267 14.1627 18.1237C14.009 17.9897 13.789 17.9617 13.6063 18.0543C13.4243 18.1473 13.317 18.3417 13.3353 18.5453C13.3417 18.6157 13.4837 19.9497 15.0247 20.957L14.7437 21.008C14.5733 21.039 14.431 21.156 14.3677 21.3173C14.3047 21.479 14.3293 21.6613 14.4333 21.8C14.4683 21.847 15.1193 22.6933 16.533 23.18C15.778 23.4317 14.7407 23.6667 13.5 23.6667C13.304 23.6667 13.1257 23.7813 13.0447 23.96C12.9633 24.1387 12.9943 24.3483 13.1237 24.4957C13.1773 24.5573 14.4783 26 17.8333 26C23.4043 26 26 20.8283 26 17.3333V17.1667C26 17.1173 25.9947 17.069 25.9927 17.0203C26.69 16.3463 26.9523 15.8407 26.965 15.8157C27.028 15.689 27.0047 15.5363 26.9063 15.435Z" fill="#DDE3F0"/>
</svg>
