<svg width="32" height="32" viewBox="0 0 32 32" fill="none" xmlns="http://www.w3.org/2000/svg">
<rect x="0.25" y="0.25" width="31.5" height="31.5" rx="7.75" stroke="#DDE3F0" stroke-width="0.5"/>
<path d="M15.9584 11.4792C14.1055 11.4792 12.384 11.6113 11.4017 11.8165C11.3996 11.817 11.3975 11.8176 11.3954 11.8182C10.6553 11.984 9.95845 12.5141 9.81175 13.3443C9.81155 13.3455 9.81136 13.3466 9.81118 13.3477C9.69847 14.0168 9.58331 14.889 9.58331 16.1459C9.58331 17.4004 9.69887 18.2495 9.84137 18.9538C9.99167 19.7595 10.6725 20.3056 11.4239 20.4736C11.4275 20.4746 11.4311 20.4756 11.4347 20.4765C12.4599 20.6785 14.1329 20.8126 15.9857 20.8126C17.8386 20.8126 19.5124 20.6785 20.5379 20.4765C20.5415 20.4756 20.5451 20.4746 20.5487 20.4736C21.2888 20.3078 21.9857 19.7777 22.1324 18.9475C22.1328 18.9454 22.1332 18.9433 22.1335 18.9412C22.2445 18.2585 22.3883 17.3871 22.4166 16.1283C22.4167 16.125 22.4167 16.1218 22.4166 16.1186C22.4166 14.859 22.2725 13.9814 22.1318 13.2862C21.9827 12.4788 21.3011 11.9312 20.5487 11.7629C20.5372 11.7604 20.5256 11.7583 20.514 11.7567C19.5135 11.616 17.8116 11.4792 15.9584 11.4792ZM14.8789 13.959C14.9869 13.9568 15.0986 13.9823 15.2036 14.0416L17.713 15.4595C18.1362 15.6986 18.1362 16.3021 17.713 16.5413L15.2036 17.9591C14.7839 18.196 14.2608 17.896 14.2608 17.418V14.5822C14.2608 14.2237 14.5548 13.9657 14.8789 13.959Z" fill="#DDE3F0"/>
</svg>
