<svg width="109" height="141" viewBox="0 0 109 141" fill="none" xmlns="http://www.w3.org/2000/svg">
<path d="M48 27.5H61C72.3276 27.5 80.7732 27.5009 87.2676 28.374C93.7477 29.2452 98.2109 30.9765 101.617 34.3828C105.024 37.7891 106.755 42.2523 107.626 48.7324C108.499 55.2268 108.5 63.6724 108.5 75V133C108.5 134.9 108.499 136.274 108.358 137.322C108.219 138.356 107.952 138.997 107.475 139.475C106.997 139.952 106.356 140.219 105.322 140.358C104.274 140.499 102.9 140.5 101 140.5H8C6.1004 140.5 4.7259 140.499 3.67773 140.358C2.64392 140.219 2.00279 139.952 1.52539 139.475C1.04799 138.997 0.780594 138.356 0.641602 137.322C0.500708 136.274 0.5 134.9 0.5 133V75C0.5 63.6724 0.50091 55.2268 1.37402 48.7324C2.24525 42.2523 3.97648 37.7891 7.38281 34.3828C10.7891 30.9765 15.2523 29.2452 21.7324 28.374C28.2268 27.5009 36.6724 27.5 48 27.5Z" fill="url(#paint0_linear_321_5835)"/>
<path d="M48 27.5H61C72.3276 27.5 80.7732 27.5009 87.2676 28.374C93.7477 29.2452 98.2109 30.9765 101.617 34.3828C105.024 37.7891 106.755 42.2523 107.626 48.7324C108.499 55.2268 108.5 63.6724 108.5 75V133C108.5 134.9 108.499 136.274 108.358 137.322C108.219 138.356 107.952 138.997 107.475 139.475C106.997 139.952 106.356 140.219 105.322 140.358C104.274 140.499 102.9 140.5 101 140.5H8C6.1004 140.5 4.7259 140.499 3.67773 140.358C2.64392 140.219 2.00279 139.952 1.52539 139.475C1.04799 138.997 0.780594 138.356 0.641602 137.322C0.500708 136.274 0.5 134.9 0.5 133V75C0.5 63.6724 0.50091 55.2268 1.37402 48.7324C2.24525 42.2523 3.97648 37.7891 7.38281 34.3828C10.7891 30.9765 15.2523 29.2452 21.7324 28.374C28.2268 27.5009 36.6724 27.5 48 27.5Z" stroke="url(#paint1_linear_321_5835)"/>
<g opacity="0.3">
<mask id="path-2-outside-1_321_5835" maskUnits="userSpaceOnUse" x="21" y="41" width="68" height="53" fill="black">
<rect fill="white" x="21" y="41" width="68" height="53"/>
<path d="M52.0264 62.5713V71.6631C52.0264 75.2406 51.6618 78.3509 50.9326 80.9941C50.2035 83.6374 49.1667 85.8249 47.8223 87.5566C46.5007 89.2884 44.9284 90.5758 43.1055 91.4189C41.2826 92.262 39.2887 92.6836 37.124 92.6836C35.3923 92.6836 33.7516 92.4215 32.2021 91.8975C30.6755 91.3506 29.2969 90.5303 28.0664 89.4365C26.8359 88.32 25.7764 86.93 24.8877 85.2666C23.999 83.6032 23.3154 81.6436 22.8369 79.3877C22.3584 77.109 22.1191 74.5342 22.1191 71.6631V62.5713C22.1191 58.971 22.4837 55.8607 23.2129 53.2402C23.9421 50.597 24.9788 48.4095 26.3232 46.6777C27.6904 44.946 29.2855 43.6585 31.1084 42.8154C32.9313 41.9723 34.9251 41.5508 37.0898 41.5508C38.8216 41.5508 40.4395 41.8242 41.9434 42.3711C43.4701 42.8952 44.8486 43.7155 46.0791 44.832C47.3324 45.9258 48.4033 47.3044 49.292 48.9678C50.1807 50.6312 50.8529 52.6022 51.3086 54.8809C51.7871 57.1367 52.0264 59.7002 52.0264 62.5713ZM40.8496 73.0645V61.1016C40.8496 59.5065 40.7926 58.1165 40.6787 56.9316C40.5648 55.7467 40.3939 54.7441 40.166 53.9238C39.9382 53.1035 39.6647 52.4427 39.3457 51.9414C39.0495 51.4173 38.7077 51.0413 38.3203 50.8135C37.9329 50.5628 37.5228 50.4375 37.0898 50.4375C36.5202 50.4375 36.0075 50.6312 35.5518 51.0186C35.096 51.3831 34.6973 51.9756 34.3555 52.7959C34.0137 53.6162 33.7516 54.71 33.5693 56.0771C33.4098 57.4443 33.3301 59.1191 33.3301 61.1016V73.0645C33.3301 74.6823 33.387 76.0951 33.501 77.3027C33.6377 78.4876 33.8086 79.5016 34.0137 80.3447C34.2188 81.165 34.4808 81.8372 34.7998 82.3613C35.1188 82.8626 35.472 83.2272 35.8594 83.4551C36.2695 83.6829 36.6911 83.7969 37.124 83.7969C37.6709 83.7969 38.1608 83.6146 38.5938 83.25C39.0495 82.8854 39.4482 82.293 39.79 81.4727C40.1318 80.6296 40.3939 79.5244 40.5762 78.1572C40.7585 76.7673 40.8496 75.0697 40.8496 73.0645ZM66.9629 62.2979H71.9531C72.9102 62.2979 73.6963 62.0472 74.3115 61.5459C74.9268 61.0218 75.3825 60.2926 75.6787 59.3584C75.9749 58.4014 76.123 57.2734 76.123 55.9746C76.123 54.972 75.9749 54.0492 75.6787 53.2061C75.4053 52.363 74.9723 51.6908 74.3799 51.1895C73.8102 50.6654 73.0811 50.4033 72.1924 50.4033C71.6455 50.4033 71.0872 50.597 70.5176 50.9844C69.9707 51.349 69.515 51.873 69.1504 52.5566C68.7858 53.2402 68.6035 54.0719 68.6035 55.0518H57.3584C57.3584 52.2262 58.0306 49.8109 59.375 47.8057C60.7194 45.7777 62.4854 44.2282 64.6729 43.1572C66.8831 42.0635 69.2643 41.5166 71.8164 41.5166C74.8698 41.5166 77.5586 42.0635 79.8828 43.1572C82.207 44.2282 84.0299 45.8232 85.3516 47.9424C86.6732 50.0387 87.334 52.6364 87.334 55.7354C87.334 57.4443 86.9922 59.0508 86.3086 60.5547C85.625 62.0586 84.668 63.3802 83.4375 64.5195C82.207 65.6589 80.7829 66.5589 79.165 67.2197C77.5472 67.8577 75.7812 68.1768 73.8672 68.1768H66.9629V62.2979ZM66.9629 70.877V65.1348H73.8672C75.9635 65.1348 77.8776 65.4196 79.6094 65.9893C81.3411 66.5361 82.8223 67.3564 84.0527 68.4502C85.306 69.5439 86.2744 70.8997 86.958 72.5176C87.6416 74.1126 87.9834 75.9469 87.9834 78.0205C87.9834 80.3447 87.5732 82.4183 86.7529 84.2412C85.9326 86.0641 84.7819 87.6022 83.3008 88.8555C81.8197 90.1087 80.0993 91.0658 78.1396 91.7266C76.18 92.3646 74.0495 92.6836 71.748 92.6836C69.9707 92.6836 68.1934 92.4102 66.416 91.8633C64.6615 91.2936 63.055 90.4277 61.5967 89.2656C60.1383 88.0807 58.9648 86.5768 58.0762 84.7539C57.1875 82.9082 56.7432 80.7093 56.7432 78.1572H68.0225C68.0225 79.2054 68.2161 80.1624 68.6035 81.0283C68.9909 81.8714 69.4922 82.5436 70.1074 83.0449C70.7454 83.5462 71.4176 83.7969 72.124 83.7969C73.1038 83.7969 73.9355 83.5348 74.6191 83.0107C75.3027 82.4639 75.8268 81.7347 76.1914 80.8232C76.556 79.9118 76.7383 78.8978 76.7383 77.7812C76.7383 76.0951 76.556 74.7507 76.1914 73.748C75.8268 72.7454 75.2913 72.0163 74.585 71.5605C73.8786 71.1048 73.0013 70.877 71.9531 70.877H66.9629Z"/>
</mask>
<path d="M50.9326 80.9941L50.4506 80.8612L50.9326 80.9941ZM47.8223 87.5566L47.4273 87.25L47.4248 87.2533L47.8223 87.5566ZM32.2021 91.8975L32.0335 92.3682L32.0419 92.3711L32.2021 91.8975ZM28.0664 89.4365L27.7304 89.8068L27.7342 89.8102L28.0664 89.4365ZM22.8369 79.3877L22.3476 79.4905L22.3478 79.4914L22.8369 79.3877ZM23.2129 53.2402L23.6946 53.3743L23.6949 53.3732L23.2129 53.2402ZM26.3232 46.6777L25.9308 46.3679L25.9283 46.3711L26.3232 46.6777ZM41.9434 42.3711L41.7725 42.8411L41.781 42.844L41.9434 42.3711ZM46.0791 44.832L45.743 45.2024L45.7503 45.2087L46.0791 44.832ZM51.3086 54.8809L50.8183 54.9789L50.8195 54.9846L51.3086 54.8809ZM40.6787 56.9316L40.181 56.9795L40.6787 56.9316ZM39.3457 51.9414L38.9104 52.1874L38.9169 52.1988L38.9239 52.2098L39.3457 51.9414ZM38.3203 50.8135L38.0487 51.2333L38.0576 51.239L38.0668 51.2444L38.3203 50.8135ZM35.5518 51.0186L35.8641 51.409L35.8699 51.4043L35.8756 51.3995L35.5518 51.0186ZM33.5693 56.0771L33.0737 56.0111L33.0727 56.0192L33.5693 56.0771ZM33.501 77.3027L33.0031 77.3497L33.0043 77.36L33.501 77.3027ZM34.0137 80.3447L33.5278 80.4629L33.5286 80.466L34.0137 80.3447ZM34.7998 82.3613L34.3726 82.6214L34.378 82.6298L34.7998 82.3613ZM35.8594 83.4551L35.6058 83.8862L35.6166 83.8922L35.8594 83.4551ZM38.5938 83.25L38.2813 82.8594L38.2717 82.8675L38.5938 83.25ZM39.79 81.4727L40.2516 81.665L40.2534 81.6605L39.79 81.4727ZM40.5762 78.1572L41.0718 78.2233L41.0719 78.2222L40.5762 78.1572ZM52.0264 62.5713H51.5264V71.6631H52.0264H52.5264V62.5713H52.0264ZM52.0264 71.6631H51.5264C51.5264 75.2085 51.1648 78.2721 50.4506 80.8612L50.9326 80.9941L51.4146 81.1271C52.1587 78.4297 52.5264 75.2727 52.5264 71.6631H52.0264ZM50.9326 80.9941L50.4506 80.8612C49.7346 83.4566 48.7229 85.5811 47.4273 87.25L47.8223 87.5566L48.2172 87.8633C49.6104 86.0687 50.6723 83.8181 51.4146 81.1271L50.9326 80.9941ZM47.8223 87.5566L47.4248 87.2533C46.1483 88.926 44.6385 90.159 42.8956 90.9651L43.1055 91.4189L43.3154 91.8728C45.2183 90.9927 46.853 89.6508 48.2197 87.86L47.8223 87.5566ZM43.1055 91.4189L42.8956 90.9651C41.1435 91.7755 39.222 92.1836 37.124 92.1836V92.6836V93.1836C39.3555 93.1836 41.4216 92.7486 43.3154 91.8728L43.1055 91.4189ZM37.124 92.6836V92.1836C35.4435 92.1836 33.8573 91.9295 32.3624 91.4238L32.2021 91.8975L32.0419 92.3711C33.646 92.9137 35.341 93.1836 37.124 93.1836V92.6836ZM32.2021 91.8975L32.3708 91.4268C30.9052 90.9018 29.582 90.1147 28.3986 89.0628L28.0664 89.4365L27.7342 89.8102C29.0118 90.9458 30.4457 91.7994 32.0335 92.3682L32.2021 91.8975ZM28.0664 89.4365L28.4024 89.0662C27.2197 87.9931 26.194 86.6506 25.3287 85.031L24.8877 85.2666L24.4467 85.5022C25.3588 87.2095 26.4522 88.6469 27.7304 89.8068L28.0664 89.4365ZM24.8877 85.2666L25.3287 85.031C24.4665 83.4171 23.7969 81.5036 23.326 79.2839L22.8369 79.3877L22.3478 79.4914C22.834 81.7835 23.5316 83.7893 24.4467 85.5022L24.8877 85.2666ZM22.8369 79.3877L23.3262 79.2849C22.8562 77.0468 22.6191 74.5073 22.6191 71.6631H22.1191H21.6191C21.6191 74.5611 21.8606 77.1713 22.3476 79.4905L22.8369 79.3877ZM22.1191 71.6631H22.6191V62.5713H22.1191H21.6191V71.6631H22.1191ZM22.1191 62.5713H22.6191C22.6191 59.0026 22.9808 55.9396 23.6946 53.3743L23.2129 53.2402L22.7312 53.1062C21.9867 55.7817 21.6191 58.9394 21.6191 62.5713H22.1191ZM23.2129 53.2402L23.6949 53.3732C24.4109 50.7777 25.4226 48.6533 26.7182 46.9843L26.3232 46.6777L25.9283 46.3711C24.5351 48.1657 23.4732 50.4163 22.7309 53.1073L23.2129 53.2402ZM26.3232 46.6777L26.7157 46.9876C28.0391 45.3113 29.5735 44.0762 31.3183 43.2692L31.1084 42.8154L30.8985 42.3616C28.9975 43.2409 27.3418 44.5806 25.9308 46.3679L26.3232 46.6777ZM31.1084 42.8154L31.3183 43.2692C33.0704 42.4589 34.9919 42.0508 37.0898 42.0508V41.5508V41.0508C34.8584 41.0508 32.7922 41.4858 30.8985 42.3616L31.1084 42.8154ZM37.0898 41.5508V42.0508C38.7681 42.0508 40.3277 42.3156 41.7725 42.841L41.9434 42.3711L42.1142 41.9012C40.5512 41.3328 38.8751 41.0508 37.0898 41.0508V41.5508ZM41.9434 42.3711L41.781 42.844C43.2416 43.3454 44.5614 44.1301 45.7431 45.2023L46.0791 44.832L46.4151 44.4618C45.1358 43.3009 43.6986 42.445 42.1057 41.8982L41.9434 42.3711ZM46.0791 44.832L45.7503 45.2087C46.9523 46.2577 47.9871 47.5863 48.851 49.2034L49.292 48.9678L49.733 48.7322C48.8196 47.0224 47.7125 45.5939 46.4079 44.4553L46.0791 44.832ZM49.292 48.9678L48.851 49.2034C49.712 50.8149 50.37 52.7376 50.8183 54.9789L51.3086 54.8809L51.7989 54.7828C51.3357 52.4668 50.6494 50.4474 49.733 48.7322L49.292 48.9678ZM51.3086 54.8809L50.8195 54.9846C51.2893 57.1993 51.5264 59.727 51.5264 62.5713H52.0264H52.5264C52.5264 59.6734 52.285 57.0742 51.7977 54.7771L51.3086 54.8809ZM40.8496 73.0645H41.3496V61.1016H40.8496H40.3496V73.0645H40.8496ZM40.8496 61.1016H41.3496C41.3496 59.4955 41.2923 58.0889 41.1764 56.8838L40.6787 56.9316L40.181 56.9795C40.293 58.1442 40.3496 59.5175 40.3496 61.1016H40.8496ZM40.6787 56.9316L41.1764 56.8838C41.0607 55.6803 40.8858 54.6471 40.6478 53.79L40.166 53.9238L39.6843 54.0576C39.9019 54.8412 40.0689 55.8132 40.181 56.9795L40.6787 56.9316ZM40.166 53.9238L40.6478 53.79C40.4119 52.9408 40.1218 52.2297 39.7675 51.673L39.3457 51.9414L38.9239 52.2098C39.2076 52.6558 39.4644 53.2662 39.6843 54.0576L40.166 53.9238ZM39.3457 51.9414L39.781 51.6954C39.4557 51.1198 39.0585 50.6676 38.5738 50.3825L38.3203 50.8135L38.0668 51.2444C38.3569 51.4151 38.6433 51.7148 38.9104 52.1874L39.3457 51.9414ZM38.3203 50.8135L38.5919 50.3937C38.1292 50.0943 37.6256 49.9375 37.0898 49.9375V50.4375V50.9375C37.42 50.9375 37.7367 51.0314 38.0487 51.2333L38.3203 50.8135ZM37.0898 50.4375V49.9375C36.3953 49.9375 35.7692 50.1775 35.2279 50.6376L35.5518 51.0186L35.8756 51.3995C36.2458 51.0848 36.6451 50.9375 37.0898 50.9375V50.4375ZM35.5518 51.0186L35.2394 50.6281C34.6926 51.0656 34.2526 51.7429 33.8939 52.6036L34.3555 52.7959L34.817 52.9882C35.142 52.2083 35.4995 51.7007 35.8641 51.409L35.5518 51.0186ZM34.3555 52.7959L33.8939 52.6036C33.5287 53.4801 33.259 54.6216 33.0737 56.0111L33.5693 56.0771L34.0649 56.1432C34.2443 54.7984 34.4986 53.7523 34.817 52.9882L34.3555 52.7959ZM33.5693 56.0771L33.0727 56.0192C32.9102 57.412 32.8301 59.1074 32.8301 61.1016H33.3301H33.8301C33.8301 59.1309 33.9094 57.4767 34.066 56.1351L33.5693 56.0771ZM33.3301 61.1016H32.8301V73.0645H33.3301H33.8301V61.1016H33.3301ZM33.3301 73.0645H32.8301C32.8301 74.6932 32.8874 76.1222 33.0032 77.3497L33.501 77.3027L33.9988 77.2558C33.8867 76.0679 33.8301 74.6714 33.8301 73.0645H33.3301ZM33.501 77.3027L33.0043 77.36C33.1425 78.5584 33.3165 79.5939 33.5278 80.4629L34.0137 80.3447L34.4995 80.2266C34.3007 79.4093 34.1328 78.4168 33.9977 77.2454L33.501 77.3027ZM34.0137 80.3447L33.5286 80.466C33.7416 81.3181 34.0197 82.0413 34.3727 82.6213L34.7998 82.3613L35.2269 82.1014C34.9419 81.6331 34.6959 81.0119 34.4987 80.2235L34.0137 80.3447ZM34.7998 82.3613L34.378 82.6298C34.7263 83.1772 35.132 83.6073 35.6059 83.886L35.8594 83.4551L36.1129 83.0241C35.812 82.8471 35.5113 82.5481 35.2216 82.0929L34.7998 82.3613ZM35.8594 83.4551L35.6166 83.8922C36.0946 84.1577 36.5991 84.2969 37.124 84.2969V83.7969V83.2969C36.7831 83.2969 36.4445 83.2082 36.1022 83.018L35.8594 83.4551ZM37.124 83.7969V84.2969C37.7932 84.2969 38.3962 84.0701 38.9158 83.6325L38.5938 83.25L38.2717 82.8675C37.9255 83.1591 37.5486 83.2969 37.124 83.2969V83.7969ZM38.5938 83.25L38.9061 83.6404C39.4529 83.203 39.893 82.5257 40.2516 81.665L39.79 81.4727L39.3285 81.2803C39.0035 82.0603 38.646 82.5679 38.2814 82.8596L38.5938 83.25ZM39.79 81.4727L40.2534 81.6605C40.6169 80.7638 40.8865 79.6132 41.0718 78.2233L40.5762 78.1572L40.0806 78.0911C39.9013 79.4357 39.6467 80.4953 39.3267 81.2848L39.79 81.4727ZM40.5762 78.1572L41.0719 78.2222C41.258 76.8037 41.3496 75.083 41.3496 73.0645H40.8496H40.3496C40.3496 75.0563 40.259 76.7308 40.0804 78.0922L40.5762 78.1572ZM66.9629 62.2979V61.7979H66.4629V62.2979H66.9629ZM74.3115 61.5459L74.6274 61.9336L74.6358 61.9265L74.3115 61.5459ZM75.6787 59.3584L76.1553 59.5095L76.1564 59.5062L75.6787 59.3584ZM75.6787 53.2061L75.203 53.3604L75.207 53.3718L75.6787 53.2061ZM74.3799 51.1895L74.0414 51.5574L74.049 51.5644L74.0569 51.5711L74.3799 51.1895ZM70.5176 50.9844L70.7949 51.4004L70.7987 51.3978L70.5176 50.9844ZM68.6035 55.0518V55.5518H69.1035V55.0518H68.6035ZM57.3584 55.0518H56.8584V55.5518H57.3584V55.0518ZM59.375 47.8057L59.7903 48.0841L59.7917 48.0819L59.375 47.8057ZM64.6729 43.1572L64.8927 43.6063L64.8946 43.6054L64.6729 43.1572ZM79.8828 43.1572L79.6699 43.6096L79.6736 43.6113L79.8828 43.1572ZM85.3516 47.9424L84.9273 48.207L84.9286 48.209L85.3516 47.9424ZM79.165 67.2197L79.3485 67.6849L79.3541 67.6826L79.165 67.2197ZM66.9629 68.1768H66.4629V68.6768H66.9629V68.1768ZM66.9629 70.877H66.4629V71.377H66.9629V70.877ZM66.9629 65.1348V64.6348H66.4629V65.1348H66.9629ZM79.6094 65.9893L79.4531 66.4643L79.4588 66.466L79.6094 65.9893ZM84.0527 68.4502L83.7205 68.8239L83.724 68.8269L84.0527 68.4502ZM86.958 72.5176L86.4974 72.7122L86.4984 72.7145L86.958 72.5176ZM86.7529 84.2412L86.297 84.036L86.7529 84.2412ZM78.1396 91.7266L78.2944 92.202L78.2994 92.2003L78.1396 91.7266ZM66.416 91.8633L66.2616 92.3389L66.269 92.3412L66.416 91.8633ZM61.5967 89.2656L61.2814 89.6537L61.2851 89.6567L61.5967 89.2656ZM58.0762 84.7539L57.6257 84.9708L57.6267 84.973L58.0762 84.7539ZM56.7432 78.1572V77.6572H56.2432V78.1572H56.7432ZM68.0225 78.1572H68.5225V77.6572H68.0225V78.1572ZM68.6035 81.0283L68.1471 81.2325L68.1492 81.2371L68.6035 81.0283ZM70.1074 83.0449L69.7915 83.4326L69.7985 83.4381L70.1074 83.0449ZM74.6191 83.0107L74.9234 83.4076L74.9315 83.4012L74.6191 83.0107ZM76.1914 73.748L75.7215 73.9189L76.1914 73.748ZM66.9629 62.2979V62.7979H71.9531V62.2979V61.7979H66.9629V62.2979ZM71.9531 62.2979V62.7979C73.0006 62.7979 73.9056 62.5217 74.6274 61.9335L74.3115 61.5459L73.9957 61.1583C73.487 61.5727 72.8197 61.7979 71.9531 61.7979V62.2979ZM74.3115 61.5459L74.6358 61.9265C75.3361 61.3299 75.8368 60.5139 76.1553 59.5095L75.6787 59.3584L75.2021 59.2073C74.9281 60.0713 74.5174 60.7137 73.9873 61.1653L74.3115 61.5459ZM75.6787 59.3584L76.1564 59.5062C76.471 58.4896 76.623 57.3096 76.623 55.9746H76.123H75.623C75.623 57.2373 75.4788 58.3132 75.2011 59.2106L75.6787 59.3584ZM76.123 55.9746H76.623C76.623 54.9224 76.4675 53.9427 76.1504 53.0403L75.6787 53.2061L75.207 53.3718C75.4824 54.1556 75.623 55.0216 75.623 55.9746H76.123ZM75.6787 53.2061L76.1543 53.0518C75.8563 52.133 75.376 51.3774 74.7029 50.8078L74.3799 51.1895L74.0569 51.5711C74.5686 52.0041 74.9542 52.5929 75.2031 53.3603L75.6787 53.2061ZM74.3799 51.1895L74.7184 50.8215C74.0428 50.1999 73.1866 49.9033 72.1924 49.9033V50.4033V50.9033C72.9755 50.9033 73.5776 51.1308 74.0414 51.5574L74.3799 51.1895ZM72.1924 50.4033V49.9033C71.522 49.9033 70.8674 50.1418 70.2364 50.5709L70.5176 50.9844L70.7987 51.3978C71.307 51.0522 71.769 50.9033 72.1924 50.9033V50.4033ZM70.5176 50.9844L70.2402 50.5683C69.6133 50.9863 69.1057 51.5779 68.7092 52.3213L69.1504 52.5566L69.5916 52.7919C69.9242 52.1682 70.3281 51.7116 70.7949 51.4004L70.5176 50.9844ZM69.1504 52.5566L68.7092 52.3213C68.2971 53.094 68.1035 54.0111 68.1035 55.0518H68.6035H69.1035C69.1035 54.1328 69.2745 53.3864 69.5916 52.7919L69.1504 52.5566ZM68.6035 55.0518V54.5518H57.3584V55.0518V55.5518H68.6035V55.0518ZM57.3584 55.0518H57.8584C57.8584 52.3081 58.51 49.9937 59.7903 48.0841L59.375 47.8057L58.9597 47.5272C57.5512 49.6281 56.8584 52.1444 56.8584 55.0518H57.3584ZM59.375 47.8057L59.7917 48.0819C61.087 46.1281 62.7849 44.6382 64.8927 43.6063L64.6729 43.1572L64.453 42.7082C62.1858 43.8182 60.3518 45.4272 58.9583 47.5294L59.375 47.8057ZM64.6729 43.1572L64.8946 43.6054C67.0335 42.5469 69.3385 42.0166 71.8164 42.0166V41.5166V41.0166C69.1902 41.0166 66.7328 41.58 64.4511 42.7091L64.6729 43.1572ZM71.8164 41.5166V42.0166C74.8099 42.0166 77.4237 42.5526 79.6699 43.6096L79.8828 43.1572L80.0957 42.7048C77.6935 41.5744 74.9297 41.0166 71.8164 41.0166V41.5166ZM79.8828 43.1572L79.6736 43.6113C81.9115 44.6425 83.6587 46.1728 84.9273 48.207L85.3516 47.9424L85.7758 47.6778C84.4012 45.4737 82.5026 43.8139 80.0921 42.7031L79.8828 43.1572ZM85.3516 47.9424L84.9286 48.209C86.1887 50.2077 86.834 52.7072 86.834 55.7354H87.334H87.834C87.834 52.5656 87.1577 49.8697 85.7745 47.6757L85.3516 47.9424ZM87.334 55.7354H86.834C86.834 57.3755 86.5064 58.9111 85.8534 60.3478L86.3086 60.5547L86.7638 60.7616C87.4779 59.1904 87.834 57.5132 87.834 55.7354H87.334ZM86.3086 60.5547L85.8534 60.3478C85.1977 61.7903 84.2803 63.0578 83.0978 64.1527L83.4375 64.5195L83.7772 64.8864C85.0557 63.7027 86.0523 62.3269 86.7638 60.7616L86.3086 60.5547ZM83.4375 64.5195L83.0978 64.1527C81.9132 65.2495 80.5406 66.1178 78.976 66.7569L79.165 67.2197L79.3541 67.6826C81.0251 67.0001 82.5008 66.0682 83.7772 64.8864L83.4375 64.5195ZM79.165 67.2197L78.9816 66.7546C77.4278 67.3674 75.7248 67.6768 73.8672 67.6768V68.1768V68.6768C75.8377 68.6768 77.6666 68.3481 79.3485 67.6849L79.165 67.2197ZM73.8672 68.1768V67.6768H66.9629V68.1768V68.6768H73.8672V68.1768ZM66.9629 68.1768H67.4629V62.2979H66.9629H66.4629V68.1768H66.9629ZM66.9629 70.877H67.4629V65.1348H66.9629H66.4629V70.877H66.9629ZM66.9629 65.1348V65.6348H73.8672V65.1348V64.6348H66.9629V65.1348ZM73.8672 65.1348V65.6348C75.9183 65.6348 77.7787 65.9134 79.4531 66.4642L79.6094 65.9893L79.7656 65.5143C77.9765 64.9258 76.0088 64.6348 73.8672 64.6348V65.1348ZM79.6094 65.9893L79.4588 66.466C81.1304 66.9939 82.5479 67.7815 83.7206 68.8239L84.0527 68.4502L84.3849 68.0765C83.0966 66.9314 81.5519 66.0783 79.7599 65.5125L79.6094 65.9893ZM84.0527 68.4502L83.724 68.8269C84.9168 69.868 85.8417 71.1603 86.4974 72.7122L86.958 72.5176L87.4186 72.323C86.7071 70.6392 85.6951 69.2199 84.3815 68.0735L84.0527 68.4502ZM86.958 72.5176L86.4984 72.7145C87.1507 74.2365 87.4834 76.0017 87.4834 78.0205H87.9834H88.4834C88.4834 75.8922 88.1325 73.9888 87.4176 72.3206L86.958 72.5176ZM87.9834 78.0205H87.4834C87.4834 80.2854 87.0839 82.2873 86.297 84.036L86.7529 84.2412L87.2089 84.4464C88.0626 82.5493 88.4834 80.404 88.4834 78.0205H87.9834ZM86.7529 84.2412L86.297 84.036C85.5063 85.793 84.4002 87.2702 82.9778 88.4738L83.3008 88.8555L83.6237 89.2372C85.1636 87.9342 86.3589 86.3352 87.2089 84.4464L86.7529 84.2412ZM83.3008 88.8555L82.9778 88.4738C81.5479 89.6837 79.8838 90.6108 77.9799 91.2528L78.1396 91.7266L78.2994 92.2003C80.3148 91.5207 82.0914 90.5338 83.6237 89.2372L83.3008 88.8555ZM78.1396 91.7266L77.9849 91.2511C76.0807 91.8711 74.003 92.1836 71.748 92.1836V92.6836V93.1836C74.096 93.1836 76.2794 92.8581 78.2944 92.202L78.1396 91.7266ZM71.748 92.6836V92.1836C70.0228 92.1836 68.295 91.9183 66.5631 91.3854L66.416 91.8633L66.269 92.3412C68.0917 92.902 69.9186 93.1836 71.748 93.1836V92.6836ZM66.416 91.8633L66.5704 91.3877C64.8735 90.8368 63.3202 89.9997 61.9083 88.8746L61.5967 89.2656L61.2851 89.6567C62.7898 90.8557 64.4494 91.7505 66.2616 92.3388L66.416 91.8633ZM61.5967 89.2656L61.912 88.8776C60.5145 87.7421 59.385 86.2976 58.5256 84.5348L58.0762 84.7539L57.6267 84.973C58.5447 86.8561 59.7622 88.4193 61.2814 89.6537L61.5967 89.2656ZM58.0762 84.7539L58.5267 84.537C57.6776 82.7735 57.2432 80.6522 57.2432 78.1572H56.7432H56.2432C56.2432 80.7664 56.6974 83.0429 57.6257 84.9708L58.0762 84.7539ZM56.7432 78.1572V78.6572H68.0225V78.1572V77.6572H56.7432V78.1572ZM68.0225 78.1572H67.5225C67.5225 79.2683 67.7281 80.2959 68.1471 81.2325L68.6035 81.0283L69.0599 80.8241C68.7042 80.0289 68.5225 79.1425 68.5225 78.1572H68.0225ZM68.6035 81.0283L68.1492 81.2371C68.5631 82.1379 69.1079 82.8755 69.7916 83.4325L70.1074 83.0449L70.4233 82.6573C69.8765 82.2118 69.4187 81.6049 69.0579 80.8196L68.6035 81.0283ZM70.1074 83.0449L69.7985 83.4381C70.5109 83.9978 71.2893 84.2969 72.124 84.2969V83.7969V83.2969C71.546 83.2969 70.98 83.0946 70.4163 82.6518L70.1074 83.0449ZM72.124 83.7969V84.2969C73.198 84.2969 74.1407 84.0076 74.9234 83.4075L74.6191 83.0107L74.3149 82.6139C73.7304 83.0621 73.0097 83.2969 72.124 83.2969V83.7969ZM74.6191 83.0107L74.9315 83.4012C75.6904 82.794 76.2629 81.9907 76.6556 81.0089L76.1914 80.8232L75.7272 80.6375C75.3907 81.4787 74.915 82.1337 74.3068 82.6203L74.6191 83.0107ZM76.1914 80.8232L76.6556 81.0089C77.0469 80.0309 77.2383 78.9527 77.2383 77.7812H76.7383H76.2383C76.2383 78.8428 76.0651 79.7927 75.7272 80.6375L76.1914 80.8232ZM76.7383 77.7812H77.2383C77.2383 76.0666 77.0539 74.6569 76.6613 73.5772L76.1914 73.748L75.7215 73.9189C76.058 74.8444 76.2383 76.1235 76.2383 77.7812H76.7383ZM76.1914 73.748L76.6613 73.5772C76.2696 72.4999 75.6763 71.6696 74.856 71.1404L74.585 71.5605L74.3139 71.9807C74.9064 72.363 75.3841 72.991 75.7215 73.9189L76.1914 73.748ZM74.585 71.5605L74.856 71.1404C74.051 70.621 73.0737 70.377 71.9531 70.377V70.877V71.377C72.9289 71.377 73.7062 71.5886 74.3139 71.9807L74.585 71.5605ZM71.9531 70.877V70.377H66.9629V70.877V71.377H71.9531V70.877Z" fill="#ABB1CC" mask="url(#path-2-outside-1_321_5835)"/>
</g>
<path d="M72.165 47.2039C72.165 47.2039 73.1553 48.6365 76.3094 50.6468C76.5454 50.7953 76.793 50.9488 77.0538 51.104C78.0441 51.6965 79.2077 52.327 80.5825 52.9806L80.9126 44.5631C80.9126 44.5631 85.2039 44.8932 89 43.2427C88.5626 43.0248 86.6778 42.0098 83.9677 39.9087C83.725 39.7222 83.4725 39.5242 83.2183 39.3179C82.0201 38.354 80.6848 37.1937 79.2572 35.8155C77.1165 39.4466 72.165 47.2039 72.165 47.2039Z" fill="url(#paint2_linear_321_5835)"/>
<path d="M37.835 46.7087C37.835 46.7087 36.8447 48.1414 33.6906 50.1516C33.4546 50.3002 33.207 50.4537 32.9462 50.6088C31.9559 51.2014 30.8006 51.8318 29.4175 52.4854L29.0874 44.068C29.0874 44.068 24.7961 44.3981 21 42.7476C21.4374 42.5297 23.3222 41.5147 26.0323 39.4136C26.275 39.2271 26.5275 39.029 26.7817 38.8227C27.9799 37.8588 29.3151 36.6985 30.7428 35.3204C32.8835 38.9515 37.835 46.7087 37.835 46.7087Z" fill="url(#paint3_linear_321_5835)"/>
<path d="M55.0005 0.000335693C69.7671 0.00056144 81.7377 11.971 81.7378 26.7376C81.7378 41.5044 69.7672 53.4757 55.0005 53.4759C40.2336 53.4759 28.2622 41.5046 28.2622 26.7376C28.2623 11.9708 40.2336 0.000335693 55.0005 0.000335693ZM55.0005 6.43686C43.7886 6.43686 34.6988 15.5258 34.6987 26.7376C34.6987 37.9496 43.7886 47.0384 55.0005 47.0384C66.2122 47.0382 75.3013 37.9494 75.3013 26.7376C75.3012 15.526 66.2121 6.43709 55.0005 6.43686Z" fill="#84391B"/>
<mask id="mask0_321_5835" style="mask-type:alpha" maskUnits="userSpaceOnUse" x="28" y="0" width="54" height="54">
<path d="M55.0005 0.000335693C69.7671 0.00056144 81.7377 11.971 81.7378 26.7376C81.7378 41.5044 69.7672 53.4757 55.0005 53.4759C40.2336 53.4759 28.2622 41.5046 28.2622 26.7376C28.2623 11.9708 40.2336 0.000335693 55.0005 0.000335693ZM55.0005 6.43686C43.7886 6.43686 34.6988 15.5258 34.6987 26.7376C34.6987 37.9496 43.7886 47.0384 55.0005 47.0384C66.2122 47.0382 75.3013 37.9494 75.3013 26.7376C75.3012 15.526 66.2121 6.43709 55.0005 6.43686Z" fill="#6C7E92"/>
</mask>
<g mask="url(#mask0_321_5835)">
<g filter="url(#filter0_f_321_5835)">
<ellipse cx="38.8212" cy="9.15223" rx="6.1068" ry="12.3786" transform="rotate(42.5525 38.8212 9.15223)" fill="#F9EEDE"/>
</g>
<g filter="url(#filter1_f_321_5835)">
<ellipse cx="72.4197" cy="9.15223" rx="6.1068" ry="12.3786" transform="rotate(150 72.4197 9.15223)" fill="#DED6C3"/>
</g>
<g filter="url(#filter2_f_321_5835)">
<ellipse cx="70.0518" cy="44.9553" rx="6.1068" ry="12.3786" transform="rotate(-135 70.0518 44.9553)" fill="#E0C9B8"/>
</g>
<g filter="url(#filter3_f_321_5835)">
<ellipse cx="39.0226" cy="42.6447" rx="6.1068" ry="12.3786" transform="rotate(-45 39.0226 42.6447)" fill="#E29F50"/>
</g>
</g>
<circle cx="55.0002" cy="26.7379" r="20.301" fill="url(#paint4_linear_321_5835)"/>
<path d="M54.9998 4.95097C67.0321 4.95097 76.7869 14.7058 76.7869 26.7381C76.7867 38.7703 67.032 48.5242 54.9998 48.5242C42.9677 48.5241 33.2137 38.7702 33.2136 26.7381C33.2136 14.7059 42.9676 4.95112 54.9998 4.95097ZM54.9998 6.4373C43.788 6.43745 34.699 15.5263 34.699 26.7381C34.6991 37.9498 43.788 47.0387 54.9998 47.0389C66.2116 47.0389 75.3004 37.9499 75.3005 26.7381C75.3005 15.5262 66.2117 6.4373 54.9998 6.4373Z" fill="url(#paint5_linear_321_5835)"/>
<path d="M55.8982 18.4174L57.9778 22.6426C58.1264 22.9562 58.4235 23.1708 58.7701 23.2203L63.4409 23.897C64.2992 24.029 64.6458 25.0853 64.0186 25.6795L60.6351 28.964C60.3875 29.2115 60.272 29.5581 60.338 29.8882L61.1303 34.5261C61.2788 35.3844 60.371 36.028 59.6118 35.6319L55.4526 33.4533C55.139 33.2882 54.7759 33.2882 54.4788 33.4533L50.3031 35.6484C49.5273 36.0446 48.6361 35.4009 48.7846 34.5426L49.5769 29.9047C49.6429 29.5581 49.5273 29.2115 49.2798 28.9805L45.9128 25.696C45.2856 25.0853 45.6322 24.029 46.4905 23.9135L51.1613 23.2368C51.5079 23.1873 51.805 22.9727 51.9536 22.6591L54.0332 18.4339C54.3963 17.6251 55.5186 17.6251 55.8982 18.4174Z" fill="url(#paint6_linear_321_5835)"/>
<path d="M53.1362 17.9922C53.8705 16.4231 56.0578 16.4554 56.7954 17.9756L58.8755 22.2012L58.8813 22.2149C58.8825 22.2172 58.8847 22.2192 58.8882 22.2217C58.8921 22.2245 58.8995 22.2288 58.9116 22.2305H58.9136L63.5845 22.9073L63.5933 22.9082C65.2337 23.1608 65.9592 25.2046 64.7144 26.3965L61.3423 29.6709L61.3208 29.7022L61.3218 29.7061L61.3237 29.7198L62.1157 34.3555L62.1372 34.5127C62.2975 36.1229 60.5804 37.2654 59.1489 36.5186L59.1479 36.5176L54.9888 34.3389L54.9868 34.3379C54.9729 34.3307 54.9637 34.3293 54.9604 34.3291L54.9546 34.3331L54.9438 34.3389L50.7681 36.5332L50.7583 36.5391C49.2674 37.3004 47.5067 36.063 47.7993 34.3721L48.5913 29.7364L48.5923 29.7266L48.5942 29.7178L48.5952 29.71L48.5815 29.6963L45.2144 26.4122L45.2153 26.4112C44.0033 25.2302 44.6568 23.1591 46.3472 22.9239L51.0181 22.2471H51.02C51.0322 22.2454 51.0396 22.2411 51.0435 22.2383C51.047 22.2358 51.0492 22.2338 51.0503 22.2315L51.0562 22.2178L53.1362 17.9922Z" stroke="url(#paint7_linear_321_5835)" stroke-width="2"/>
<circle cx="55.0002" cy="26.7379" r="18.301" stroke="url(#paint8_linear_321_5835)" stroke-width="4"/>
<path opacity="0.15" d="M75.9612 10.1505C74.7048 11.6541 73.5618 12.8152 72.1677 14.1651C72.0645 14.2676 71.9612 14.3701 71.8579 14.4726C71.7891 14.541 71.7374 14.5922 71.6686 14.6606C71.4104 14.8998 71.1523 15.1561 70.8769 15.3953C70.7736 15.4808 70.6876 15.5662 70.5843 15.6687C70.5155 15.72 70.4466 15.7883 70.395 15.8396C70.3089 15.925 70.2229 15.9934 70.1368 16.0617C60.9805 24.1097 49.3458 29.0136 37.0571 29.9021C36.9366 29.9021 36.8333 29.9192 36.7129 29.9192C36.6268 29.9192 36.5407 29.9363 36.4547 29.9363C36.317 29.9363 36.1965 29.9534 36.0588 29.9534C35.6113 29.9705 35.1639 30.0047 34.7164 30.0047C34.5787 30.0047 34.4238 30.0217 34.2861 30.0217C33.9419 30.0388 33.5976 30.0388 33.2706 30.0388C31.67 30.0388 30.0694 29.9876 28.4515 29.8509C28.3311 28.8427 28.2622 27.8004 28.2622 26.7581C28.2622 11.9779 40.3272 0 55.1976 0C61.8927 0 67.8619 2.56942 72.5777 6.60194C73.7997 7.64424 74.9286 8.90314 75.9612 10.1505Z" fill="url(#paint9_linear_321_5835)"/>
<circle cx="55" cy="85" r="16" fill="url(#paint10_linear_321_5835)"/>
<path d="M55.0001 78.3333C54.116 78.3333 53.2682 78.6845 52.6431 79.3096C52.0179 79.9348 51.6667 80.7826 51.6667 81.6667C51.6667 82.5507 52.0179 83.3986 52.6431 84.0237C53.2682 84.6488 54.116 85 55.0001 85C55.8841 85 56.732 84.6488 57.3571 84.0237C57.9822 83.3986 58.3334 82.5507 58.3334 81.6667C58.3334 80.7826 57.9822 79.9348 57.3571 79.3096C56.732 78.6845 55.8841 78.3333 55.0001 78.3333ZM59.0071 86.3333H50.9931C50.2617 86.3333 49.6667 86.9283 49.6667 87.6597V88.1667C49.6667 89.2707 50.2951 90.2253 51.4357 90.8543C52.3847 91.3783 53.6507 91.6667 55.0001 91.6667C57.5687 91.6667 60.3334 90.5713 60.3334 88.1667V87.6597C60.3334 86.9283 59.7384 86.3333 59.0071 86.3333Z" fill="#DDE3F0"/>
<defs>
<filter id="filter0_f_321_5835" x="-29.6841" y="-59.8606" width="137.01" height="138.026" filterUnits="userSpaceOnUse" color-interpolation-filters="sRGB">
<feFlood flood-opacity="0" result="BackgroundImageFix"/>
<feBlend mode="normal" in="SourceGraphic" in2="BackgroundImageFix" result="shape"/>
<feGaussianBlur stdDeviation="29.5" result="effect1_foregroundBlur_321_5835"/>
</filter>
<filter id="filter1_f_321_5835" x="5.27856" y="-60.9972" width="134.282" height="140.299" filterUnits="userSpaceOnUse" color-interpolation-filters="sRGB">
<feFlood flood-opacity="0" result="BackgroundImageFix"/>
<feBlend mode="normal" in="SourceGraphic" in2="BackgroundImageFix" result="shape"/>
<feGaussianBlur stdDeviation="29.5" result="effect1_foregroundBlur_321_5835"/>
</filter>
<filter id="filter2_f_321_5835" x="1.28931" y="-23.8071" width="137.525" height="137.525" filterUnits="userSpaceOnUse" color-interpolation-filters="sRGB">
<feFlood flood-opacity="0" result="BackgroundImageFix"/>
<feBlend mode="normal" in="SourceGraphic" in2="BackgroundImageFix" result="shape"/>
<feGaussianBlur stdDeviation="29.5" result="effect1_foregroundBlur_321_5835"/>
</filter>
<filter id="filter3_f_321_5835" x="-29.7397" y="-26.1177" width="137.525" height="137.525" filterUnits="userSpaceOnUse" color-interpolation-filters="sRGB">
<feFlood flood-opacity="0" result="BackgroundImageFix"/>
<feBlend mode="normal" in="SourceGraphic" in2="BackgroundImageFix" result="shape"/>
<feGaussianBlur stdDeviation="29.5" result="effect1_foregroundBlur_321_5835"/>
</filter>
<linearGradient id="paint0_linear_321_5835" x1="99.5673" y1="141" x2="99.5673" y2="27" gradientUnits="userSpaceOnUse">
<stop stop-color="#1D2766"/>
<stop offset="1" stop-color="#171F52"/>
</linearGradient>
<linearGradient id="paint1_linear_321_5835" x1="54.5" y1="27" x2="54.5" y2="141" gradientUnits="userSpaceOnUse">
<stop stop-color="#243189"/>
<stop offset="1" stop-color="#1B2565"/>
</linearGradient>
<linearGradient id="paint2_linear_321_5835" x1="85.3078" y1="48.4942" x2="75.284" y2="41.4755" gradientUnits="userSpaceOnUse">
<stop stop-color="#FF00B7"/>
<stop offset="0.405" stop-color="#E3029E"/>
<stop offset="0.5279" stop-color="#E527A5"/>
<stop offset="0.6172" stop-color="#B90280"/>
<stop offset="1" stop-color="#730054"/>
</linearGradient>
<linearGradient id="paint3_linear_321_5835" x1="26.5291" y1="48.2767" x2="34.0388" y2="42.0874" gradientUnits="userSpaceOnUse">
<stop stop-color="#FF00B7"/>
<stop offset="0.405" stop-color="#E3029E"/>
<stop offset="0.5279" stop-color="#E527A5"/>
<stop offset="0.6172" stop-color="#B90280"/>
<stop offset="1" stop-color="#730054"/>
</linearGradient>
<linearGradient id="paint4_linear_321_5835" x1="55.0002" y1="6.43689" x2="55.0002" y2="47.0388" gradientUnits="userSpaceOnUse">
<stop stop-color="#616184"/>
<stop offset="0.484375" stop-color="#403C55"/>
<stop offset="1" stop-color="#40303A"/>
</linearGradient>
<linearGradient id="paint5_linear_321_5835" x1="55.0002" y1="4.95097" x2="55.0002" y2="48.5242" gradientUnits="userSpaceOnUse">
<stop stop-color="#3F221F"/>
<stop offset="1" stop-color="#E3A763"/>
</linearGradient>
<linearGradient id="paint6_linear_321_5835" x1="54.9574" y1="18" x2="54.9574" y2="33.6134" gradientUnits="userSpaceOnUse">
<stop offset="0.0820804" stop-color="#EDB966"/>
<stop offset="0.2263" stop-color="#DDDCD7"/>
<stop offset="0.3883" stop-color="#E9B87D"/>
<stop offset="0.5895" stop-color="#853A27"/>
<stop offset="1" stop-color="#D3954C"/>
</linearGradient>
<linearGradient id="paint7_linear_321_5835" x1="54.9657" y1="17.8252" x2="54.9657" y2="35.7681" gradientUnits="userSpaceOnUse">
<stop stop-color="#3F221F"/>
<stop offset="1" stop-color="#863C1F"/>
</linearGradient>
<linearGradient id="paint8_linear_321_5835" x1="55.0002" y1="6.43151" x2="55.0002" y2="47.0334" gradientUnits="userSpaceOnUse">
<stop stop-color="#3C3D4F"/>
<stop offset="1" stop-color="#081630"/>
</linearGradient>
<linearGradient id="paint9_linear_321_5835" x1="40.8658" y1="4.12193" x2="55.9702" y2="25.2637" gradientUnits="userSpaceOnUse">
<stop offset="0.5084" stop-color="white" stop-opacity="0"/>
<stop offset="1" stop-color="white"/>
</linearGradient>
<linearGradient id="paint10_linear_321_5835" x1="55" y1="69" x2="55" y2="101" gradientUnits="userSpaceOnUse">
<stop stop-color="#369DE4"/>
<stop offset="1" stop-color="#045CB9"/>
</linearGradient>
</defs>
</svg>
