<svg width="109" height="157" viewBox="0 0 109 157" fill="none" xmlns="http://www.w3.org/2000/svg">
<path d="M48 27.5H61C72.3276 27.5 80.7732 27.5009 87.2676 28.374C93.7477 29.2452 98.2109 30.9765 101.617 34.3828C105.024 37.7891 106.755 42.2523 107.626 48.7324C108.499 55.2268 108.5 63.6724 108.5 75V149C108.5 150.9 108.499 152.274 108.358 153.322C108.219 154.356 107.952 154.997 107.475 155.475C106.997 155.952 106.356 156.219 105.322 156.358C104.274 156.499 102.9 156.5 101 156.5H8C6.1004 156.5 4.7259 156.499 3.67773 156.358C2.64392 156.219 2.00279 155.952 1.52539 155.475C1.04799 154.997 0.780594 154.356 0.641602 153.322C0.500708 152.274 0.5 150.9 0.5 149V75C0.5 63.6724 0.50091 55.2268 1.37402 48.7324C2.24525 42.2523 3.97648 37.7891 7.38281 34.3828C10.7891 30.9765 15.2523 29.2452 21.7324 28.374C28.2268 27.5009 36.6724 27.5 48 27.5Z" fill="url(#paint0_linear_321_5773)"/>
<path d="M48 27.5H61C72.3276 27.5 80.7732 27.5009 87.2676 28.374C93.7477 29.2452 98.2109 30.9765 101.617 34.3828C105.024 37.7891 106.755 42.2523 107.626 48.7324C108.499 55.2268 108.5 63.6724 108.5 75V149C108.5 150.9 108.499 152.274 108.358 153.322C108.219 154.356 107.952 154.997 107.475 155.475C106.997 155.952 106.356 156.219 105.322 156.358C104.274 156.499 102.9 156.5 101 156.5H8C6.1004 156.5 4.7259 156.499 3.67773 156.358C2.64392 156.219 2.00279 155.952 1.52539 155.475C1.04799 154.997 0.780594 154.356 0.641602 153.322C0.500708 152.274 0.5 150.9 0.5 149V75C0.5 63.6724 0.50091 55.2268 1.37402 48.7324C2.24525 42.2523 3.97648 37.7891 7.38281 34.3828C10.7891 30.9765 15.2523 29.2452 21.7324 28.374C28.2268 27.5009 36.6724 27.5 48 27.5Z" stroke="url(#paint1_linear_321_5773)"/>
<g opacity="0.3">
<mask id="path-2-outside-1_321_5773" maskUnits="userSpaceOnUse" x="16" y="42" width="69" height="61" fill="black">
<rect fill="white" x="16" y="42" width="69" height="61"/>
<path d="M51.6016 67.3672V77.7578C51.6016 81.8464 51.1849 85.401 50.3516 88.4219C49.5182 91.4427 48.3333 93.9427 46.7969 95.9219C45.2865 97.901 43.4896 99.3724 41.4062 100.336C39.3229 101.299 37.0443 101.781 34.5703 101.781C32.5911 101.781 30.7161 101.482 28.9453 100.883C27.2005 100.258 25.625 99.3203 24.2188 98.0703C22.8125 96.7943 21.6016 95.2057 20.5859 93.3047C19.5703 91.4036 18.7891 89.1641 18.2422 86.5859C17.6953 83.9818 17.4219 81.0391 17.4219 77.7578V67.3672C17.4219 63.2526 17.8385 59.6979 18.6719 56.7031C19.5052 53.6823 20.6901 51.1823 22.2266 49.2031C23.7891 47.224 25.612 45.7526 27.6953 44.7891C29.7786 43.8255 32.0573 43.3438 34.5312 43.3438C36.5104 43.3438 38.3594 43.6562 40.0781 44.2812C41.8229 44.8802 43.3984 45.8177 44.8047 47.0938C46.237 48.3438 47.4609 49.9193 48.4766 51.8203C49.4922 53.7214 50.2604 55.974 50.7812 58.5781C51.3281 61.1562 51.6016 64.0859 51.6016 67.3672ZM38.8281 79.3594V65.6875C38.8281 63.8646 38.763 62.276 38.6328 60.9219C38.5026 59.5677 38.3073 58.4219 38.0469 57.4844C37.7865 56.5469 37.474 55.7917 37.1094 55.2188C36.7708 54.6198 36.3802 54.1901 35.9375 53.9297C35.4948 53.6432 35.026 53.5 34.5312 53.5C33.8802 53.5 33.2943 53.7214 32.7734 54.1641C32.2526 54.5807 31.7969 55.2578 31.4062 56.1953C31.0156 57.1328 30.7161 58.3828 30.5078 59.9453C30.3255 61.5078 30.2344 63.4219 30.2344 65.6875V79.3594C30.2344 81.2083 30.2995 82.8229 30.4297 84.2031C30.5859 85.5573 30.7812 86.7161 31.0156 87.6797C31.25 88.6172 31.5495 89.3854 31.9141 89.9844C32.2786 90.5573 32.6823 90.974 33.125 91.2344C33.5938 91.4948 34.0755 91.625 34.5703 91.625C35.1953 91.625 35.7552 91.4167 36.25 91C36.7708 90.5833 37.2266 89.9062 37.6172 88.9688C38.0078 88.0052 38.3073 86.7422 38.5156 85.1797C38.724 83.5911 38.8281 81.651 38.8281 79.3594ZM84.3359 44.125V101H71.4844V58.9688L61.1328 62.7578V52.7578L83.2031 44.125H84.3359Z"/>
</mask>
<path d="M50.3516 88.4219L49.8696 88.2889L50.3516 88.4219ZM46.7969 95.9219L46.4019 95.6153L46.3994 95.6185L46.7969 95.9219ZM28.9453 100.883L28.7767 101.354L28.7851 101.356L28.9453 100.883ZM24.2188 98.0703L23.8827 98.4406L23.8866 98.444L24.2188 98.0703ZM18.2422 86.5859L17.7529 86.6887L17.7531 86.6897L18.2422 86.5859ZM18.6719 56.7031L19.1536 56.8372L19.1539 56.8361L18.6719 56.7031ZM22.2266 49.2031L21.8341 48.8933L21.8316 48.8965L22.2266 49.2031ZM40.0781 44.2812L39.9072 44.7512L39.9158 44.7542L40.0781 44.2812ZM44.8047 47.0938L44.4686 47.4641L44.4759 47.4705L44.8047 47.0938ZM50.7812 58.5781L50.2909 58.6762L50.2921 58.6819L50.7812 58.5781ZM38.6328 60.9219L38.1351 60.9697L38.6328 60.9219ZM37.1094 55.2188L36.6741 55.4648L36.6805 55.4762L36.6875 55.4872L37.1094 55.2188ZM35.9375 53.9297L35.6659 54.3495L35.6748 54.3553L35.684 54.3607L35.9375 53.9297ZM32.7734 54.1641L33.0858 54.5545L33.0916 54.5499L33.0973 54.545L32.7734 54.1641ZM30.5078 59.9453L30.0121 59.8792L30.0112 59.8874L30.5078 59.9453ZM30.4297 84.2031L29.9318 84.2501L29.933 84.2604L30.4297 84.2031ZM31.0156 87.6797L30.5298 87.7979L30.5306 87.801L31.0156 87.6797ZM31.9141 89.9844L31.4869 90.2444L31.4922 90.2528L31.9141 89.9844ZM33.125 91.2344L32.8714 91.6655L32.8822 91.6715L33.125 91.2344ZM36.25 91L35.9376 90.6094L35.9279 90.6175L36.25 91ZM37.6172 88.9688L38.0787 89.1611L38.0806 89.1566L37.6172 88.9688ZM38.5156 85.1797L39.0112 85.2458L39.0114 85.2447L38.5156 85.1797ZM51.6016 67.3672H51.1016V77.7578H51.6016H52.1016V67.3672H51.6016ZM51.6016 77.7578H51.1016C51.1016 81.8143 50.688 85.3222 49.8696 88.2889L50.3516 88.4219L50.8336 88.5548C51.6818 85.4799 52.1016 81.8784 52.1016 77.7578H51.6016ZM50.3516 88.4219L49.8696 88.2889C49.0494 91.262 47.8896 93.6989 46.4019 95.6153L46.7969 95.9219L47.1918 96.2285C48.7771 94.1865 49.987 91.6234 50.8336 88.5548L50.3516 88.4219ZM46.7969 95.9219L46.3994 95.6185C44.9341 97.5386 43.1997 98.9556 41.1964 99.8821L41.4062 100.336L41.6161 100.79C43.7795 99.7892 45.6389 98.2635 47.1944 96.2252L46.7969 95.9219ZM41.4062 100.336L41.1964 99.8821C39.1838 100.813 36.9775 101.281 34.5703 101.281V101.781V102.281C37.111 102.281 39.462 101.786 41.6161 100.79L41.4062 100.336ZM34.5703 101.781V101.281C32.6424 101.281 30.8218 100.99 29.1055 100.409L28.9453 100.883L28.7851 101.356C30.6105 101.974 32.5399 102.281 34.5703 102.281V101.781ZM28.9453 100.883L29.1139 100.412C27.4303 99.809 25.9101 98.9048 24.5509 97.6966L24.2188 98.0703L23.8866 98.444C25.3399 99.7359 26.9708 100.707 28.7767 101.354L28.9453 100.883ZM24.2188 98.0703L24.5547 97.7C23.1963 96.4674 22.0192 94.9263 21.0269 93.0691L20.5859 93.3047L20.1449 93.5403C21.184 95.4852 22.4287 97.1212 23.8828 98.4406L24.2188 98.0703ZM20.5859 93.3047L21.0269 93.0691C20.0378 91.2175 19.2705 89.0241 18.7313 86.4822L18.2422 86.5859L17.7531 86.6897C18.3076 89.304 19.1029 91.5898 20.1449 93.5403L20.5859 93.3047ZM18.2422 86.5859L18.7315 86.4832C18.1932 83.9195 17.9219 81.0122 17.9219 77.7578H17.4219H16.9219C16.9219 81.0659 17.1975 84.044 17.7529 86.6887L18.2422 86.5859ZM17.4219 77.7578H17.9219V67.3672H17.4219H16.9219V77.7578H17.4219ZM17.4219 67.3672H17.9219C17.9219 63.2842 18.3356 59.7768 19.1536 56.8372L18.6719 56.7031L18.1902 56.5691C17.3415 59.619 16.9219 63.221 16.9219 67.3672H17.4219ZM18.6719 56.7031L19.1539 56.8361C19.974 53.863 21.1338 51.4261 22.6215 49.5097L22.2266 49.2031L21.8316 48.8965C20.2464 50.9385 19.0364 53.5016 18.1899 56.5702L18.6719 56.7031ZM22.2266 49.2031L22.619 49.5129C24.1377 47.5893 25.9 46.1703 27.9052 45.2429L27.6953 44.7891L27.4854 44.3352C25.3239 45.3349 23.4404 46.8586 21.8341 48.8933L22.2266 49.2031ZM27.6953 44.7891L27.9052 45.2429C29.9177 44.3121 32.124 43.8438 34.5312 43.8438V43.3438V42.8438C31.9905 42.8438 29.6396 43.339 27.4854 44.3352L27.6953 44.7891ZM34.5312 43.3438V43.8438C36.4569 43.8438 38.2476 44.1476 39.9073 44.7511L40.0781 44.2812L40.249 43.8114C38.4711 43.1649 36.5639 42.8438 34.5312 42.8438V43.3438ZM40.0781 44.2812L39.9158 44.7542C41.5944 45.3304 43.1112 46.2323 44.4687 47.464L44.8047 47.0938L45.1407 46.7235C43.6856 45.4031 42.0514 44.43 40.2405 43.8083L40.0781 44.2812ZM44.8047 47.0938L44.4759 47.4705C45.8569 48.6757 47.0447 50.2012 48.0356 52.0559L48.4766 51.8203L48.9176 51.5847C47.8772 49.6373 46.6171 48.0118 45.1335 46.717L44.8047 47.0938ZM48.4766 51.8203L48.0356 52.0559C49.0235 53.9051 49.7776 56.1094 50.291 58.6762L50.7812 58.5781L51.2715 58.4801C50.7432 55.8386 49.9609 53.5376 48.9176 51.5847L48.4766 51.8203ZM50.7812 58.5781L50.2921 58.6819C50.8303 61.2188 51.1016 64.1127 51.1016 67.3672H51.6016H52.1016C52.1016 64.0592 51.826 61.0937 51.2704 58.4744L50.7812 58.5781ZM38.8281 79.3594H39.3281V65.6875H38.8281H38.3281V79.3594H38.8281ZM38.8281 65.6875H39.3281C39.3281 63.8536 39.2627 62.2484 39.1305 60.874L38.6328 60.9219L38.1351 60.9697C38.2634 62.3037 38.3281 63.8756 38.3281 65.6875H38.8281ZM38.6328 60.9219L39.1305 60.874C38.9985 59.5013 38.7993 58.3248 38.5286 57.3506L38.0469 57.4844L37.5651 57.6182C37.8153 58.5189 38.0067 59.6341 38.1351 60.9697L38.6328 60.9219ZM38.0469 57.4844L38.5286 57.3506C38.2602 56.3842 37.931 55.5786 37.5312 54.9503L37.1094 55.2188L36.6875 55.4872C37.0169 56.0047 37.3127 56.7095 37.5651 57.6182L38.0469 57.4844ZM37.1094 55.2188L37.5447 54.9727C37.177 54.3223 36.731 53.8164 36.191 53.4987L35.9375 53.9297L35.684 54.3607C36.0294 54.5638 36.3646 54.9173 36.6741 55.4648L37.1094 55.2188ZM35.9375 53.9297L36.2091 53.5099C35.6911 53.1747 35.1288 53 34.5312 53V53.5V54C34.9232 54 35.2985 54.1118 35.6659 54.3495L35.9375 53.9297ZM34.5312 53.5V53C33.7553 53 33.0559 53.2677 32.4496 53.7831L32.7734 54.1641L33.0973 54.545C33.5326 54.175 34.0051 54 34.5312 54V53.5ZM32.7734 54.1641L32.4611 53.7736C31.8492 54.2632 31.3522 55.0251 30.9447 56.003L31.4062 56.1953L31.8678 56.3876C32.2416 55.4905 32.656 54.8983 33.0858 54.5545L32.7734 54.1641ZM31.4062 56.1953L30.9447 56.003C30.5307 56.9967 30.2235 58.2944 30.0122 59.8792L30.5078 59.9453L31.0034 60.0114C31.2088 58.4712 31.5006 57.2689 31.8678 56.3876L31.4062 56.1953ZM30.5078 59.9453L30.0112 59.8874C29.8259 61.4754 29.7344 63.4101 29.7344 65.6875H30.2344H30.7344C30.7344 63.4336 30.8251 61.5402 31.0044 60.0033L30.5078 59.9453ZM30.2344 65.6875H29.7344V79.3594H30.2344H30.7344V65.6875H30.2344ZM30.2344 79.3594H29.7344C29.7344 81.2192 29.7998 82.8501 29.9319 84.2501L30.4297 84.2031L30.9275 84.1562C30.7991 82.7957 30.7344 81.1975 30.7344 79.3594H30.2344ZM30.4297 84.2031L29.933 84.2604C30.0908 85.6281 30.2891 86.8084 30.5298 87.7979L31.0156 87.6797L31.5015 87.5615C31.2734 86.6239 31.0811 85.4865 30.9264 84.1458L30.4297 84.2031ZM31.0156 87.6797L30.5306 87.801C30.7729 88.7703 31.0884 89.5895 31.487 90.2443L31.9141 89.9844L32.3412 89.7244C32.0106 89.1813 31.7271 88.4641 31.5007 87.5584L31.0156 87.6797ZM31.9141 89.9844L31.4922 90.2528C31.8861 90.8718 32.3423 91.354 32.8715 91.6653L33.125 91.2344L33.3785 90.8034C33.0223 90.5939 32.6712 90.2428 32.3359 89.7159L31.9141 89.9844ZM33.125 91.2344L32.8822 91.6715C33.4188 91.9696 33.9835 92.125 34.5703 92.125V91.625V91.125C34.1675 91.125 33.7687 91.02 33.3678 90.7973L33.125 91.2344ZM34.5703 91.625V92.125C35.3176 92.125 35.9906 91.8721 36.5721 91.3825L36.25 91L35.9279 90.6175C35.5199 90.9612 35.073 91.125 34.5703 91.125V91.625ZM36.25 91L36.5623 91.3904C37.1743 90.9009 37.6713 90.139 38.0787 89.1611L37.6172 88.9688L37.1556 88.7764C36.7819 89.6735 36.3674 90.2658 35.9377 90.6096L36.25 91ZM37.6172 88.9688L38.0806 89.1566C38.4929 88.1394 38.7999 86.8309 39.0112 85.2458L38.5156 85.1797L38.02 85.1136C37.8147 86.6534 37.5227 87.871 37.1538 88.7809L37.6172 88.9688ZM38.5156 85.1797L39.0114 85.2447C39.2235 83.6276 39.3281 81.6644 39.3281 79.3594H38.8281H38.3281C38.3281 81.6377 38.2245 83.5547 38.0199 85.1147L38.5156 85.1797ZM84.3359 44.125H84.8359V43.625H84.3359V44.125ZM84.3359 101V101.5H84.8359V101H84.3359ZM71.4844 101H70.9844V101.5H71.4844V101ZM71.4844 58.9688H71.9844V58.2533L71.3125 58.4992L71.4844 58.9688ZM61.1328 62.7578H60.6328V63.4733L61.3047 63.2273L61.1328 62.7578ZM61.1328 52.7578L60.9507 52.2922L60.6328 52.4165V52.7578H61.1328ZM83.2031 44.125V43.625H83.1088L83.021 43.6594L83.2031 44.125ZM84.3359 44.125H83.8359V101H84.3359H84.8359V44.125H84.3359ZM84.3359 101V100.5H71.4844V101V101.5H84.3359V101ZM71.4844 101H71.9844V58.9688H71.4844H70.9844V101H71.4844ZM71.4844 58.9688L71.3125 58.4992L60.9609 62.2883L61.1328 62.7578L61.3047 63.2273L71.6562 59.4383L71.4844 58.9688ZM61.1328 62.7578H61.6328V52.7578H61.1328H60.6328V62.7578H61.1328ZM61.1328 52.7578L61.3149 53.2235L83.3853 44.5906L83.2031 44.125L83.021 43.6594L60.9507 52.2922L61.1328 52.7578ZM83.2031 44.125V44.625H84.3359V44.125V43.625H83.2031V44.125Z" fill="#ABB1CC" mask="url(#path-2-outside-1_321_5773)"/>
</g>
<path d="M71.165 47.2039C71.165 47.2039 72.1553 48.6365 75.3094 50.6468C75.5454 50.7953 75.793 50.9488 76.0538 51.104C77.0441 51.6965 78.2077 52.327 79.5825 52.9806L79.9126 44.5631C79.9126 44.5631 84.2039 44.8932 88 43.2427C87.5626 43.0248 85.6778 42.0098 82.9677 39.9087C82.725 39.7222 82.4725 39.5242 82.2183 39.3179C81.0201 38.354 79.6848 37.1937 78.2572 35.8155C76.1165 39.4466 71.165 47.2039 71.165 47.2039Z" fill="url(#paint2_linear_321_5773)"/>
<path d="M36.835 46.7087C36.835 46.7087 35.8447 48.1413 32.6906 50.1516C32.4546 50.3002 32.207 50.4537 31.9462 50.6088C30.9559 51.2013 29.8006 51.8318 28.4175 52.4854L28.0874 44.0679C28.0874 44.0679 23.7961 44.398 20 42.7476C20.4374 42.5297 22.3222 41.5146 25.0323 39.4136C25.275 39.2271 25.5275 39.029 25.7817 38.8227C26.9799 37.8588 28.3151 36.6985 29.7428 35.3204C31.8835 38.9514 36.835 46.7087 36.835 46.7087Z" fill="url(#paint3_linear_321_5773)"/>
<path d="M54.4956 0.000144958C69.2622 0.000369671 81.2327 11.9709 81.2329 26.7374C81.2329 41.5042 69.2623 53.4755 54.4956 53.4757C39.7287 53.4757 27.7573 41.5044 27.7573 26.7374C27.7575 11.9707 39.7288 0.000144958 54.4956 0.000144958ZM54.4956 6.43667C43.2838 6.43667 34.194 15.5257 34.1938 26.7374C34.1938 37.9494 43.2837 47.0392 54.4956 47.0392C65.7073 47.039 74.7964 37.9492 74.7964 26.7374C74.7962 15.5258 65.7072 6.43689 54.4956 6.43667Z" fill="#E36302"/>
<mask id="mask0_321_5773" style="mask-type:alpha" maskUnits="userSpaceOnUse" x="27" y="0" width="55" height="54">
<path d="M54.4956 0.000144958C69.2622 0.000369671 81.2327 11.9709 81.2329 26.7374C81.2329 41.5042 69.2623 53.4755 54.4956 53.4757C39.7287 53.4757 27.7573 41.5044 27.7573 26.7374C27.7575 11.9707 39.7288 0.000144958 54.4956 0.000144958ZM54.4956 6.43667C43.2838 6.43667 34.194 15.5257 34.1938 26.7374C34.1938 37.9494 43.2837 47.0392 54.4956 47.0392C65.7073 47.039 74.7964 37.9492 74.7964 26.7374C74.7962 15.5258 65.7072 6.43689 54.4956 6.43667Z" fill="#6C7E92"/>
</mask>
<g mask="url(#mask0_321_5773)">
<g filter="url(#filter0_f_321_5773)">
<ellipse cx="44.1537" cy="7.58648" rx="9.48969" ry="17.89" transform="rotate(42.5525 44.1537 7.58648)" fill="#FBEB93"/>
</g>
<g filter="url(#filter1_f_321_5773)">
<ellipse cx="70.5201" cy="7.36967" rx="6.1068" ry="17.1813" transform="rotate(150 70.5201 7.36967)" fill="#F9C94D"/>
</g>
<g filter="url(#filter2_f_321_5773)">
<ellipse cx="69.3819" cy="44.9255" rx="6.1068" ry="12.3786" transform="rotate(-135 69.3819 44.9255)" fill="#FEDB78"/>
</g>
<g filter="url(#filter3_f_321_5773)">
<ellipse cx="38.3527" cy="42.6148" rx="6.1068" ry="12.3786" transform="rotate(-45 38.3527 42.6148)" fill="#FBE515"/>
</g>
</g>
<circle cx="54.4951" cy="26.7379" r="20.301" fill="url(#paint4_linear_321_5773)"/>
<path d="M54.4949 4.9519C66.5272 4.9519 76.282 14.7057 76.282 26.738C76.2819 38.7703 66.5271 48.5242 54.4949 48.5242C42.4628 48.524 32.7088 38.7702 32.7087 26.738C32.7087 14.7058 42.4627 4.95205 54.4949 4.9519ZM54.4949 6.43726C43.2831 6.4374 34.1941 15.5262 34.1941 26.738C34.1942 37.9498 43.2832 47.0387 54.4949 47.0388C65.7067 47.0388 74.7955 37.9499 74.7957 26.738C74.7957 15.5261 65.7068 6.43726 54.4949 6.43726Z" fill="url(#paint5_linear_321_5773)"/>
<path d="M59.6101 36.4257C59.3326 36.4254 59.0594 36.3568 58.8146 36.226L54.6422 34.0342C54.5867 34.005 54.5249 33.9897 54.4623 33.9897C54.3996 33.9897 54.3378 34.005 54.2824 34.0342L50.1099 36.226C49.8651 36.3568 49.5919 36.4254 49.3144 36.4257C49.0656 36.4249 48.8199 36.3699 48.5945 36.2646C48.3691 36.1592 48.1693 36.006 48.0091 35.8156C47.8488 35.6253 47.732 35.4023 47.6667 35.1622C47.6014 34.9221 47.5892 34.6706 47.6309 34.4253L48.4281 29.7809C48.4388 29.7188 48.4341 29.6551 48.4146 29.5953C48.395 29.5354 48.3611 29.4813 48.3158 29.4375L44.9423 26.1481C44.7143 25.9255 44.5532 25.6436 44.4769 25.3342C44.4007 25.0249 44.4124 24.7004 44.5107 24.3973C44.609 24.0943 44.7901 23.8247 45.0334 23.619C45.2768 23.4134 45.5728 23.2798 45.888 23.2334L50.5523 22.5567C50.6145 22.5473 50.6735 22.5231 50.7244 22.486C50.7752 22.4489 50.8164 22.4001 50.8444 22.3438L52.9306 18.1169C53.0717 17.8311 53.2899 17.5906 53.5606 17.4224C53.8313 17.2542 54.1436 17.165 54.4623 17.165C54.7809 17.165 55.0932 17.2542 55.3639 17.4224C55.6346 17.5906 55.8528 17.8311 55.9939 18.1169L58.0801 22.3438C58.1081 22.4001 58.1493 22.4489 58.2001 22.486C58.251 22.5231 58.31 22.5473 58.3723 22.5567L63.0365 23.2334C63.3517 23.2798 63.6477 23.4134 63.8911 23.619C64.1344 23.8247 64.3155 24.0943 64.4138 24.3973C64.5121 24.7004 64.5238 25.0249 64.4476 25.3342C64.3713 25.6436 64.2102 25.9255 63.9823 26.1481L60.6087 29.4375C60.5634 29.4813 60.5295 29.5354 60.5099 29.5953C60.4904 29.6551 60.4857 29.7188 60.4964 29.7809L61.2936 34.4253C61.3353 34.6706 61.3231 34.9221 61.2578 35.1622C61.1925 35.4023 61.0757 35.6253 60.9154 35.8156C60.7552 36.006 60.5555 36.1592 60.33 36.2646C60.1046 36.3699 59.8589 36.4249 59.6101 36.4257Z" fill="#470068"/>
<path d="M55.4024 18.4101L57.4886 22.637C57.5641 22.7891 57.6753 22.9206 57.8126 23.0203C57.95 23.1201 58.1095 23.185 58.2775 23.2097L62.9418 23.8881C63.1353 23.9162 63.317 23.9979 63.4665 24.1239C63.616 24.25 63.7273 24.4153 63.7877 24.6013C63.8482 24.7872 63.8554 24.9864 63.8086 25.1762C63.7617 25.3661 63.6627 25.539 63.5227 25.6755L60.1475 28.965C60.026 29.0837 59.9352 29.2301 59.8829 29.3917C59.8306 29.5533 59.8183 29.7251 59.8471 29.8925L60.6426 34.5386C60.6761 34.7314 60.6549 34.9297 60.5814 35.111C60.5079 35.2923 60.385 35.4494 60.2267 35.5644C60.0684 35.6794 59.881 35.7477 59.6858 35.7615C59.4907 35.7754 59.2955 35.7343 59.1226 35.6428L54.9584 33.451C54.8078 33.3713 54.6401 33.3297 54.4698 33.3297C54.2995 33.3297 54.1318 33.3713 53.9813 33.451L49.8039 35.6428C49.6309 35.7343 49.4358 35.7754 49.2406 35.7615C49.0455 35.7477 48.8581 35.6794 48.6998 35.5644C48.5415 35.4494 48.4186 35.2923 48.3451 35.111C48.2715 34.9297 48.2503 34.7314 48.2838 34.5386L49.0793 29.8925C49.1082 29.7251 49.0959 29.5533 49.0436 29.3917C48.9913 29.2301 48.9004 29.0837 48.779 28.965L45.4037 25.6755C45.2637 25.539 45.1647 25.3661 45.1179 25.1762C45.0711 24.9864 45.0783 24.7872 45.1387 24.6013C45.1992 24.4153 45.3104 24.25 45.4599 24.1239C45.6094 23.9979 45.7912 23.9162 45.9847 23.8881L50.649 23.2097C50.8169 23.185 50.9764 23.1201 51.1138 23.0203C51.2512 22.9206 51.3624 22.7891 51.4379 22.637L53.5241 18.4101C53.6104 18.2346 53.7441 18.0868 53.9101 17.9834C54.076 17.88 54.2677 17.8252 54.4632 17.8252C54.6588 17.8252 54.8504 17.88 55.0164 17.9834C55.1824 18.0868 55.3161 18.2346 55.4024 18.4101Z" fill="url(#paint6_linear_321_5773)"/>
<circle cx="54.4951" cy="26.7379" r="17.801" stroke="url(#paint7_linear_321_5773)" stroke-width="5"/>
<path opacity="0.15" d="M75.4564 10.1505C74.1999 11.6541 73.0569 12.8152 71.6628 14.1651C71.5596 14.2676 71.4563 14.3701 71.3531 14.4726C71.2842 14.541 71.2326 14.5922 71.1637 14.6606C70.9056 14.8998 70.6474 15.1561 70.372 15.3953C70.2687 15.4808 70.1827 15.5662 70.0794 15.6687C70.0106 15.72 69.9417 15.7883 69.8901 15.8396C69.8041 15.925 69.718 15.9934 69.6319 16.0617C60.4756 24.1097 48.8409 29.0136 36.5522 29.9021C36.4317 29.9021 36.3285 29.9192 36.208 29.9192C36.1219 29.9192 36.0359 29.9363 35.9498 29.9363C35.8121 29.9363 35.6916 29.9534 35.554 29.9534C35.1065 29.9705 34.659 30.0047 34.2115 30.0047C34.0738 30.0047 33.9189 30.0217 33.7812 30.0217C33.437 30.0388 33.0928 30.0388 32.7658 30.0388C31.1651 30.0388 29.5645 29.9876 27.9466 29.8509C27.8262 28.8427 27.7573 27.8004 27.7573 26.7581C27.7573 11.9779 39.8223 0 54.6927 0C61.3878 0 67.357 2.56942 72.0729 6.60194C73.2948 7.64424 74.4237 8.90314 75.4564 10.1505Z" fill="url(#paint8_linear_321_5773)"/>
<circle cx="55" cy="101" r="16" fill="url(#paint9_linear_321_5773)"/>
<path d="M55.0001 94.3333C54.116 94.3333 53.2682 94.6845 52.6431 95.3096C52.0179 95.9348 51.6667 96.7826 51.6667 97.6667C51.6667 98.5507 52.0179 99.3986 52.6431 100.024C53.2682 100.649 54.116 101 55.0001 101C55.8841 101 56.732 100.649 57.3571 100.024C57.9822 99.3986 58.3334 98.5507 58.3334 97.6667C58.3334 96.7826 57.9822 95.9348 57.3571 95.3096C56.732 94.6845 55.8841 94.3333 55.0001 94.3333ZM59.0071 102.333H50.9931C50.2617 102.333 49.6667 102.928 49.6667 103.66V104.167C49.6667 105.271 50.2951 106.225 51.4357 106.854C52.3847 107.378 53.6507 107.667 55.0001 107.667C57.5687 107.667 60.3334 106.571 60.3334 104.167V103.66C60.3334 102.928 59.7384 102.333 59.0071 102.333Z" fill="#DDE3F0"/>
<defs>
<filter id="filter0_f_321_5773" x="-28.8215" y="-66.0752" width="145.95" height="147.323" filterUnits="userSpaceOnUse" color-interpolation-filters="sRGB">
<feFlood flood-opacity="0" result="BackgroundImageFix"/>
<feBlend mode="normal" in="SourceGraphic" in2="BackgroundImageFix" result="shape"/>
<feGaussianBlur stdDeviation="29.5" result="effect1_foregroundBlur_321_5773"/>
</filter>
<filter id="filter1_f_321_5773" x="1.43066" y="-66.8228" width="138.179" height="148.385" filterUnits="userSpaceOnUse" color-interpolation-filters="sRGB">
<feFlood flood-opacity="0" result="BackgroundImageFix"/>
<feBlend mode="normal" in="SourceGraphic" in2="BackgroundImageFix" result="shape"/>
<feGaussianBlur stdDeviation="29.5" result="effect1_foregroundBlur_321_5773"/>
</filter>
<filter id="filter2_f_321_5773" x="0.619385" y="-23.8369" width="137.525" height="137.525" filterUnits="userSpaceOnUse" color-interpolation-filters="sRGB">
<feFlood flood-opacity="0" result="BackgroundImageFix"/>
<feBlend mode="normal" in="SourceGraphic" in2="BackgroundImageFix" result="shape"/>
<feGaussianBlur stdDeviation="29.5" result="effect1_foregroundBlur_321_5773"/>
</filter>
<filter id="filter3_f_321_5773" x="-30.4097" y="-26.1476" width="137.525" height="137.525" filterUnits="userSpaceOnUse" color-interpolation-filters="sRGB">
<feFlood flood-opacity="0" result="BackgroundImageFix"/>
<feBlend mode="normal" in="SourceGraphic" in2="BackgroundImageFix" result="shape"/>
<feGaussianBlur stdDeviation="29.5" result="effect1_foregroundBlur_321_5773"/>
</filter>
<linearGradient id="paint0_linear_321_5773" x1="99.5673" y1="157" x2="99.5673" y2="27" gradientUnits="userSpaceOnUse">
<stop stop-color="#1D2766"/>
<stop offset="1" stop-color="#171F52"/>
</linearGradient>
<linearGradient id="paint1_linear_321_5773" x1="54.5" y1="27" x2="54.5" y2="157" gradientUnits="userSpaceOnUse">
<stop stop-color="#243189"/>
<stop offset="1" stop-color="#1B2565"/>
</linearGradient>
<linearGradient id="paint2_linear_321_5773" x1="84.308" y1="48.5034" x2="74.2904" y2="41.4823" gradientUnits="userSpaceOnUse">
<stop stop-color="#FC0106"/>
<stop offset="0.5559" stop-color="#E82626"/>
<stop offset="0.6787" stop-color="#B90004"/>
<stop offset="1" stop-color="#790400"/>
</linearGradient>
<linearGradient id="paint3_linear_321_5773" x1="25.7767" y1="47.1213" x2="32.4662" y2="41.5157" gradientUnits="userSpaceOnUse">
<stop stop-color="#FC0106"/>
<stop offset="0.493927" stop-color="#E82626"/>
<stop offset="0.716768" stop-color="#B90004"/>
<stop offset="1" stop-color="#790400"/>
</linearGradient>
<linearGradient id="paint4_linear_321_5773" x1="54.4951" y1="6.43689" x2="54.4951" y2="47.0388" gradientUnits="userSpaceOnUse">
<stop stop-color="#BD49D0"/>
<stop offset="0.5" stop-color="#9703B9"/>
<stop offset="1" stop-color="#852878"/>
</linearGradient>
<linearGradient id="paint5_linear_321_5773" x1="54.4954" y1="4.72326" x2="54.4954" y2="48.5022" gradientUnits="userSpaceOnUse">
<stop stop-color="#FFEE02"/>
<stop offset="0.5" stop-color="#D27003"/>
<stop offset="1" stop-color="#FBA400"/>
</linearGradient>
<linearGradient id="paint6_linear_321_5773" x1="54.4661" y1="18.0023" x2="54.4661" y2="33.6069" gradientUnits="userSpaceOnUse">
<stop offset="0.0820804" stop-color="#F7E547"/>
<stop offset="0.2263" stop-color="#FEFCAF"/>
<stop offset="0.3883" stop-color="#F8DC20"/>
<stop offset="0.5895" stop-color="#E67A0B"/>
<stop offset="1" stop-color="#F8DC20"/>
</linearGradient>
<linearGradient id="paint7_linear_321_5773" x1="54.4951" y1="6.43689" x2="54.4951" y2="47.0388" gradientUnits="userSpaceOnUse">
<stop stop-color="#AB2EBE"/>
<stop offset="1" stop-color="#340354"/>
</linearGradient>
<linearGradient id="paint8_linear_321_5773" x1="40.3609" y1="4.12193" x2="55.4653" y2="25.2637" gradientUnits="userSpaceOnUse">
<stop offset="0.5084" stop-color="white" stop-opacity="0"/>
<stop offset="1" stop-color="white"/>
</linearGradient>
<linearGradient id="paint9_linear_321_5773" x1="55" y1="85" x2="55" y2="117" gradientUnits="userSpaceOnUse">
<stop stop-color="#369DE4"/>
<stop offset="1" stop-color="#045CB9"/>
</linearGradient>
</defs>
</svg>
