<svg width="109" height="141" viewBox="0 0 109 141" fill="none" xmlns="http://www.w3.org/2000/svg">
<path d="M48 27.5H61C72.3276 27.5 80.7732 27.5009 87.2676 28.374C93.7477 29.2452 98.2109 30.9765 101.617 34.3828C105.024 37.7891 106.755 42.2523 107.626 48.7324C108.499 55.2268 108.5 63.6724 108.5 75V133C108.5 134.9 108.499 136.274 108.358 137.322C108.219 138.356 107.952 138.997 107.475 139.475C106.997 139.952 106.356 140.219 105.322 140.358C104.274 140.499 102.9 140.5 101 140.5H8C6.1004 140.5 4.7259 140.499 3.67773 140.358C2.64392 140.219 2.00279 139.952 1.52539 139.475C1.04799 138.997 0.780594 138.356 0.641602 137.322C0.500708 136.274 0.5 134.9 0.5 133V75C0.5 63.6724 0.50091 55.2268 1.37402 48.7324C2.24525 42.2523 3.97648 37.7891 7.38281 34.3828C10.7891 30.9765 15.2523 29.2452 21.7324 28.374C28.2268 27.5009 36.6724 27.5 48 27.5Z" fill="url(#paint0_linear_321_5804)"/>
<path d="M48 27.5H61C72.3276 27.5 80.7732 27.5009 87.2676 28.374C93.7477 29.2452 98.2109 30.9765 101.617 34.3828C105.024 37.7891 106.755 42.2523 107.626 48.7324C108.499 55.2268 108.5 63.6724 108.5 75V133C108.5 134.9 108.499 136.274 108.358 137.322C108.219 138.356 107.952 138.997 107.475 139.475C106.997 139.952 106.356 140.219 105.322 140.358C104.274 140.499 102.9 140.5 101 140.5H8C6.1004 140.5 4.7259 140.499 3.67773 140.358C2.64392 140.219 2.00279 139.952 1.52539 139.475C1.04799 138.997 0.780594 138.356 0.641602 137.322C0.500708 136.274 0.5 134.9 0.5 133V75C0.5 63.6724 0.50091 55.2268 1.37402 48.7324C2.24525 42.2523 3.97648 37.7891 7.38281 34.3828C10.7891 30.9765 15.2523 29.2452 21.7324 28.374C28.2268 27.5009 36.6724 27.5 48 27.5Z" stroke="url(#paint1_linear_321_5804)"/>
<g opacity="0.3">
<mask id="path-2-outside-1_321_5804" maskUnits="userSpaceOnUse" x="21" y="41" width="68" height="53" fill="black">
<rect fill="white" x="21" y="41" width="68" height="53"/>
<path d="M52.0264 62.5713V71.6631C52.0264 75.2406 51.6618 78.3509 50.9326 80.9941C50.2035 83.6374 49.1667 85.8249 47.8223 87.5566C46.5007 89.2884 44.9284 90.5758 43.1055 91.4189C41.2826 92.262 39.2887 92.6836 37.124 92.6836C35.3923 92.6836 33.7516 92.4215 32.2021 91.8975C30.6755 91.3506 29.2969 90.5303 28.0664 89.4365C26.8359 88.32 25.7764 86.93 24.8877 85.2666C23.999 83.6032 23.3154 81.6436 22.8369 79.3877C22.3584 77.109 22.1191 74.5342 22.1191 71.6631V62.5713C22.1191 58.971 22.4837 55.8607 23.2129 53.2402C23.9421 50.597 24.9788 48.4095 26.3232 46.6777C27.6904 44.946 29.2855 43.6585 31.1084 42.8154C32.9313 41.9723 34.9251 41.5508 37.0898 41.5508C38.8216 41.5508 40.4395 41.8242 41.9434 42.3711C43.4701 42.8952 44.8486 43.7155 46.0791 44.832C47.3324 45.9258 48.4033 47.3044 49.292 48.9678C50.1807 50.6312 50.8529 52.6022 51.3086 54.8809C51.7871 57.1367 52.0264 59.7002 52.0264 62.5713ZM40.8496 73.0645V61.1016C40.8496 59.5065 40.7926 58.1165 40.6787 56.9316C40.5648 55.7467 40.3939 54.7441 40.166 53.9238C39.9382 53.1035 39.6647 52.4427 39.3457 51.9414C39.0495 51.4173 38.7077 51.0413 38.3203 50.8135C37.9329 50.5628 37.5228 50.4375 37.0898 50.4375C36.5202 50.4375 36.0075 50.6312 35.5518 51.0186C35.096 51.3831 34.6973 51.9756 34.3555 52.7959C34.0137 53.6162 33.7516 54.71 33.5693 56.0771C33.4098 57.4443 33.3301 59.1191 33.3301 61.1016V73.0645C33.3301 74.6823 33.387 76.0951 33.501 77.3027C33.6377 78.4876 33.8086 79.5016 34.0137 80.3447C34.2188 81.165 34.4808 81.8372 34.7998 82.3613C35.1188 82.8626 35.472 83.2272 35.8594 83.4551C36.2695 83.6829 36.6911 83.7969 37.124 83.7969C37.6709 83.7969 38.1608 83.6146 38.5938 83.25C39.0495 82.8854 39.4482 82.293 39.79 81.4727C40.1318 80.6296 40.3939 79.5244 40.5762 78.1572C40.7585 76.7673 40.8496 75.0697 40.8496 73.0645ZM87.8809 83.1133V92H57.9053V84.4805L71.3037 67.6641C72.3975 66.0462 73.2633 64.5993 73.9014 63.3232C74.5622 62.0244 75.0407 60.8509 75.3369 59.8027C75.6331 58.7546 75.7812 57.8089 75.7812 56.9658C75.7812 55.5303 75.6445 54.334 75.3711 53.377C75.0977 52.3971 74.6989 51.6566 74.1748 51.1553C73.6735 50.654 73.0469 50.4033 72.2949 50.4033C71.4746 50.4033 70.7682 50.7451 70.1758 51.4287C69.5833 52.1123 69.1276 53.0465 68.8086 54.2314C68.5124 55.4163 68.3643 56.7493 68.3643 58.2305H57.085C57.085 55.1771 57.7344 52.3857 59.0332 49.8564C60.332 47.3271 62.1436 45.3105 64.4678 43.8066C66.792 42.2799 69.4922 41.5166 72.5684 41.5166C75.7585 41.5166 78.4245 42.0863 80.5664 43.2256C82.7311 44.3649 84.349 46.0169 85.4199 48.1816C86.5137 50.3236 87.0605 52.9098 87.0605 55.9404C87.0605 57.6722 86.8327 59.3356 86.377 60.9307C85.9212 62.5257 85.2604 64.1094 84.3945 65.6816C83.5286 67.2311 82.4577 68.8262 81.1816 70.4668C79.9056 72.1074 78.4359 73.8506 76.7725 75.6963L72.6367 83.1133H87.8809Z"/>
</mask>
<path d="M50.9326 80.9941L50.4506 80.8612L50.9326 80.9941ZM47.8223 87.5566L47.4273 87.25L47.4248 87.2533L47.8223 87.5566ZM32.2021 91.8975L32.0335 92.3682L32.0419 92.3711L32.2021 91.8975ZM28.0664 89.4365L27.7304 89.8068L27.7342 89.8102L28.0664 89.4365ZM22.8369 79.3877L22.3476 79.4905L22.3478 79.4914L22.8369 79.3877ZM23.2129 53.2402L23.6946 53.3743L23.6949 53.3732L23.2129 53.2402ZM26.3232 46.6777L25.9308 46.3679L25.9283 46.3711L26.3232 46.6777ZM41.9434 42.3711L41.7725 42.8411L41.781 42.844L41.9434 42.3711ZM46.0791 44.832L45.743 45.2024L45.7503 45.2087L46.0791 44.832ZM51.3086 54.8809L50.8183 54.9789L50.8195 54.9846L51.3086 54.8809ZM40.6787 56.9316L40.181 56.9795L40.6787 56.9316ZM39.3457 51.9414L38.9104 52.1874L38.9169 52.1988L38.9239 52.2098L39.3457 51.9414ZM38.3203 50.8135L38.0487 51.2333L38.0576 51.239L38.0668 51.2444L38.3203 50.8135ZM35.5518 51.0186L35.8641 51.409L35.8699 51.4043L35.8756 51.3995L35.5518 51.0186ZM33.5693 56.0771L33.0737 56.0111L33.0727 56.0192L33.5693 56.0771ZM33.501 77.3027L33.0031 77.3497L33.0043 77.36L33.501 77.3027ZM34.0137 80.3447L33.5278 80.4629L33.5286 80.466L34.0137 80.3447ZM34.7998 82.3613L34.3726 82.6214L34.378 82.6298L34.7998 82.3613ZM35.8594 83.4551L35.6058 83.8862L35.6166 83.8922L35.8594 83.4551ZM38.5938 83.25L38.2813 82.8594L38.2717 82.8675L38.5938 83.25ZM39.79 81.4727L40.2516 81.665L40.2534 81.6605L39.79 81.4727ZM40.5762 78.1572L41.0718 78.2233L41.0719 78.2222L40.5762 78.1572ZM52.0264 62.5713H51.5264V71.6631H52.0264H52.5264V62.5713H52.0264ZM52.0264 71.6631H51.5264C51.5264 75.2085 51.1648 78.2721 50.4506 80.8612L50.9326 80.9941L51.4146 81.1271C52.1587 78.4297 52.5264 75.2727 52.5264 71.6631H52.0264ZM50.9326 80.9941L50.4506 80.8612C49.7346 83.4566 48.7229 85.5811 47.4273 87.25L47.8223 87.5566L48.2172 87.8633C49.6104 86.0687 50.6723 83.8181 51.4146 81.1271L50.9326 80.9941ZM47.8223 87.5566L47.4248 87.2533C46.1483 88.926 44.6385 90.159 42.8956 90.9651L43.1055 91.4189L43.3154 91.8728C45.2183 90.9927 46.853 89.6508 48.2197 87.86L47.8223 87.5566ZM43.1055 91.4189L42.8956 90.9651C41.1435 91.7755 39.222 92.1836 37.124 92.1836V92.6836V93.1836C39.3555 93.1836 41.4216 92.7486 43.3154 91.8728L43.1055 91.4189ZM37.124 92.6836V92.1836C35.4435 92.1836 33.8573 91.9295 32.3624 91.4238L32.2021 91.8975L32.0419 92.3711C33.646 92.9137 35.341 93.1836 37.124 93.1836V92.6836ZM32.2021 91.8975L32.3708 91.4268C30.9052 90.9018 29.582 90.1147 28.3986 89.0628L28.0664 89.4365L27.7342 89.8102C29.0118 90.9458 30.4457 91.7994 32.0335 92.3682L32.2021 91.8975ZM28.0664 89.4365L28.4024 89.0662C27.2197 87.9931 26.194 86.6506 25.3287 85.031L24.8877 85.2666L24.4467 85.5022C25.3588 87.2095 26.4522 88.6469 27.7304 89.8068L28.0664 89.4365ZM24.8877 85.2666L25.3287 85.031C24.4665 83.4171 23.7969 81.5036 23.326 79.2839L22.8369 79.3877L22.3478 79.4914C22.834 81.7835 23.5316 83.7893 24.4467 85.5022L24.8877 85.2666ZM22.8369 79.3877L23.3262 79.2849C22.8562 77.0468 22.6191 74.5073 22.6191 71.6631H22.1191H21.6191C21.6191 74.5611 21.8606 77.1713 22.3476 79.4905L22.8369 79.3877ZM22.1191 71.6631H22.6191V62.5713H22.1191H21.6191V71.6631H22.1191ZM22.1191 62.5713H22.6191C22.6191 59.0026 22.9808 55.9396 23.6946 53.3743L23.2129 53.2402L22.7312 53.1062C21.9867 55.7817 21.6191 58.9394 21.6191 62.5713H22.1191ZM23.2129 53.2402L23.6949 53.3732C24.4109 50.7777 25.4226 48.6533 26.7182 46.9843L26.3232 46.6777L25.9283 46.3711C24.5351 48.1657 23.4732 50.4163 22.7309 53.1073L23.2129 53.2402ZM26.3232 46.6777L26.7157 46.9876C28.0391 45.3113 29.5735 44.0762 31.3183 43.2692L31.1084 42.8154L30.8985 42.3616C28.9975 43.2409 27.3418 44.5806 25.9308 46.3679L26.3232 46.6777ZM31.1084 42.8154L31.3183 43.2692C33.0704 42.4589 34.9919 42.0508 37.0898 42.0508V41.5508V41.0508C34.8584 41.0508 32.7922 41.4858 30.8985 42.3616L31.1084 42.8154ZM37.0898 41.5508V42.0508C38.7681 42.0508 40.3277 42.3156 41.7725 42.841L41.9434 42.3711L42.1142 41.9012C40.5512 41.3328 38.8751 41.0508 37.0898 41.0508V41.5508ZM41.9434 42.3711L41.781 42.844C43.2416 43.3454 44.5614 44.1301 45.7431 45.2023L46.0791 44.832L46.4151 44.4618C45.1358 43.3009 43.6986 42.445 42.1057 41.8982L41.9434 42.3711ZM46.0791 44.832L45.7503 45.2087C46.9523 46.2577 47.9871 47.5863 48.851 49.2034L49.292 48.9678L49.733 48.7322C48.8196 47.0224 47.7125 45.5939 46.4079 44.4553L46.0791 44.832ZM49.292 48.9678L48.851 49.2034C49.712 50.8149 50.37 52.7376 50.8183 54.9789L51.3086 54.8809L51.7989 54.7828C51.3357 52.4668 50.6494 50.4474 49.733 48.7322L49.292 48.9678ZM51.3086 54.8809L50.8195 54.9846C51.2893 57.1993 51.5264 59.727 51.5264 62.5713H52.0264H52.5264C52.5264 59.6734 52.285 57.0742 51.7977 54.7771L51.3086 54.8809ZM40.8496 73.0645H41.3496V61.1016H40.8496H40.3496V73.0645H40.8496ZM40.8496 61.1016H41.3496C41.3496 59.4955 41.2923 58.0889 41.1764 56.8838L40.6787 56.9316L40.181 56.9795C40.293 58.1442 40.3496 59.5175 40.3496 61.1016H40.8496ZM40.6787 56.9316L41.1764 56.8838C41.0607 55.6803 40.8858 54.6471 40.6478 53.79L40.166 53.9238L39.6843 54.0576C39.9019 54.8412 40.0689 55.8132 40.181 56.9795L40.6787 56.9316ZM40.166 53.9238L40.6478 53.79C40.4119 52.9408 40.1218 52.2297 39.7675 51.673L39.3457 51.9414L38.9239 52.2098C39.2076 52.6558 39.4644 53.2662 39.6843 54.0576L40.166 53.9238ZM39.3457 51.9414L39.781 51.6954C39.4557 51.1198 39.0585 50.6676 38.5738 50.3825L38.3203 50.8135L38.0668 51.2444C38.3569 51.4151 38.6433 51.7148 38.9104 52.1874L39.3457 51.9414ZM38.3203 50.8135L38.5919 50.3937C38.1292 50.0943 37.6256 49.9375 37.0898 49.9375V50.4375V50.9375C37.42 50.9375 37.7367 51.0314 38.0487 51.2333L38.3203 50.8135ZM37.0898 50.4375V49.9375C36.3953 49.9375 35.7692 50.1775 35.2279 50.6376L35.5518 51.0186L35.8756 51.3995C36.2458 51.0848 36.6451 50.9375 37.0898 50.9375V50.4375ZM35.5518 51.0186L35.2394 50.6281C34.6926 51.0656 34.2526 51.7429 33.8939 52.6036L34.3555 52.7959L34.817 52.9882C35.142 52.2083 35.4995 51.7007 35.8641 51.409L35.5518 51.0186ZM34.3555 52.7959L33.8939 52.6036C33.5287 53.4801 33.259 54.6216 33.0737 56.0111L33.5693 56.0771L34.0649 56.1432C34.2443 54.7984 34.4986 53.7523 34.817 52.9882L34.3555 52.7959ZM33.5693 56.0771L33.0727 56.0192C32.9102 57.412 32.8301 59.1074 32.8301 61.1016H33.3301H33.8301C33.8301 59.1309 33.9094 57.4767 34.066 56.1351L33.5693 56.0771ZM33.3301 61.1016H32.8301V73.0645H33.3301H33.8301V61.1016H33.3301ZM33.3301 73.0645H32.8301C32.8301 74.6932 32.8874 76.1222 33.0032 77.3497L33.501 77.3027L33.9988 77.2558C33.8867 76.0679 33.8301 74.6714 33.8301 73.0645H33.3301ZM33.501 77.3027L33.0043 77.36C33.1425 78.5584 33.3165 79.5939 33.5278 80.4629L34.0137 80.3447L34.4995 80.2266C34.3007 79.4093 34.1328 78.4168 33.9977 77.2454L33.501 77.3027ZM34.0137 80.3447L33.5286 80.466C33.7416 81.3181 34.0197 82.0413 34.3727 82.6213L34.7998 82.3613L35.2269 82.1014C34.9419 81.6331 34.6959 81.0119 34.4987 80.2235L34.0137 80.3447ZM34.7998 82.3613L34.378 82.6298C34.7263 83.1772 35.132 83.6073 35.6059 83.886L35.8594 83.4551L36.1129 83.0241C35.812 82.8471 35.5113 82.5481 35.2216 82.0929L34.7998 82.3613ZM35.8594 83.4551L35.6166 83.8922C36.0946 84.1577 36.5991 84.2969 37.124 84.2969V83.7969V83.2969C36.7831 83.2969 36.4445 83.2082 36.1022 83.018L35.8594 83.4551ZM37.124 83.7969V84.2969C37.7932 84.2969 38.3962 84.0701 38.9158 83.6325L38.5938 83.25L38.2717 82.8675C37.9255 83.1591 37.5486 83.2969 37.124 83.2969V83.7969ZM38.5938 83.25L38.9061 83.6404C39.4529 83.203 39.893 82.5257 40.2516 81.665L39.79 81.4727L39.3285 81.2803C39.0035 82.0603 38.646 82.5679 38.2814 82.8596L38.5938 83.25ZM39.79 81.4727L40.2534 81.6605C40.6169 80.7638 40.8865 79.6132 41.0718 78.2233L40.5762 78.1572L40.0806 78.0911C39.9013 79.4357 39.6467 80.4953 39.3267 81.2848L39.79 81.4727ZM40.5762 78.1572L41.0719 78.2222C41.258 76.8037 41.3496 75.083 41.3496 73.0645H40.8496H40.3496C40.3496 75.0563 40.259 76.7308 40.0804 78.0922L40.5762 78.1572ZM87.8809 83.1133H88.3809V82.6133H87.8809V83.1133ZM87.8809 92V92.5H88.3809V92H87.8809ZM57.9053 92H57.4053V92.5H57.9053V92ZM57.9053 84.4805L57.5142 84.1689L57.4053 84.3056V84.4805H57.9053ZM71.3037 67.6641L71.6948 67.9756L71.707 67.9603L71.7179 67.9441L71.3037 67.6641ZM73.9014 63.3232L73.4557 63.0965L73.4542 63.0996L73.9014 63.3232ZM75.3369 59.8027L74.8558 59.6668L75.3369 59.8027ZM75.3711 53.377L74.8895 53.5114L74.8903 53.5143L75.3711 53.377ZM74.1748 51.1553L73.8212 51.5089L73.8292 51.5166L74.1748 51.1553ZM68.8086 54.2314L68.3257 54.1014L68.3235 54.1102L68.8086 54.2314ZM68.3643 58.2305V58.7305H68.8643V58.2305H68.3643ZM57.085 58.2305H56.585V58.7305H57.085V58.2305ZM64.4678 43.8066L64.7394 44.2264L64.7423 44.2245L64.4678 43.8066ZM80.5664 43.2256L80.3316 43.667L80.3335 43.668L80.5664 43.2256ZM85.4199 48.1816L84.9717 48.4034L84.9746 48.409L85.4199 48.1816ZM86.377 60.9307L85.8962 60.7933L86.377 60.9307ZM84.3945 65.6816L84.831 65.9256L84.8325 65.9228L84.3945 65.6816ZM76.7725 75.6963L76.401 75.3616L76.3633 75.4035L76.3358 75.4528L76.7725 75.6963ZM72.6367 83.1133L72.2 82.8698L71.7854 83.6133H72.6367V83.1133ZM87.8809 83.1133H87.3809V92H87.8809H88.3809V83.1133H87.8809ZM87.8809 92V91.5H57.9053V92V92.5H87.8809V92ZM57.9053 92H58.4053V84.4805H57.9053H57.4053V92H57.9053ZM57.9053 84.4805L58.2963 84.792L71.6948 67.9756L71.3037 67.6641L70.9127 67.3525L57.5142 84.1689L57.9053 84.4805ZM71.3037 67.6641L71.7179 67.9441C72.8198 66.3143 73.698 64.848 74.3486 63.5468L73.9014 63.3232L73.4542 63.0996C72.8287 64.3505 71.9751 65.7782 70.8895 67.384L71.3037 67.6641ZM73.9014 63.3232L74.347 63.55C75.018 62.2312 75.5106 61.0267 75.8181 59.9387L75.3369 59.8027L74.8558 59.6668C74.5708 60.6751 74.1064 61.8176 73.4557 63.0965L73.9014 63.3232ZM75.3369 59.8027L75.8181 59.9387C76.1234 58.8585 76.2812 57.866 76.2812 56.9658H75.7812H75.2812C75.2812 57.7518 75.1429 58.6507 74.8558 59.6668L75.3369 59.8027ZM75.7812 56.9658H76.2812C76.2812 55.5024 76.1423 54.2562 75.8519 53.2396L75.3711 53.377L74.8903 53.5143C75.1467 54.4117 75.2812 55.5581 75.2812 56.9658H75.7812ZM75.3711 53.377L75.8527 53.2426C75.5644 52.2094 75.1304 51.3774 74.5204 50.794L74.1748 51.1553L73.8292 51.5166C74.2674 51.9357 74.6309 52.5849 74.8895 53.5114L75.3711 53.377ZM74.1748 51.1553L74.5284 50.8017C73.9272 50.2005 73.1706 49.9033 72.2949 49.9033V50.4033V50.9033C72.9232 50.9033 73.4198 51.1074 73.8213 51.5088L74.1748 51.1553ZM72.2949 50.4033V49.9033C71.3137 49.9033 70.4744 50.3207 69.7979 51.1012L70.1758 51.4287L70.5536 51.7562C71.0621 51.1695 71.6356 50.9033 72.2949 50.9033V50.4033ZM70.1758 51.4287L69.7979 51.1012C69.1417 51.8585 68.6578 52.8683 68.3258 54.1015L68.8086 54.2314L69.2914 54.3614C69.5974 53.2248 70.025 52.3661 70.5536 51.7562L70.1758 51.4287ZM68.8086 54.2314L68.3235 54.1102C68.0155 55.3421 67.8643 56.7168 67.8643 58.2305H68.3643H68.8643C68.8643 56.7819 69.0092 55.4906 69.2937 54.3527L68.8086 54.2314ZM68.3643 58.2305V57.7305H57.085V58.2305V58.7305H68.3643V58.2305ZM57.085 58.2305H57.585C57.585 55.2505 58.2181 52.5383 59.478 50.0848L59.0332 49.8564L58.5884 49.628C57.2507 52.2332 56.585 55.1037 56.585 58.2305H57.085ZM59.0332 49.8564L59.478 50.0848C60.738 47.6312 62.4907 45.6815 64.7394 44.2264L64.4678 43.8066L64.1961 43.3869C61.7964 44.9396 59.9261 47.0231 58.5884 49.628L59.0332 49.8564ZM64.4678 43.8066L64.7423 44.2245C66.9764 42.757 69.579 42.0166 72.5684 42.0166V41.5166V41.0166C69.4054 41.0166 66.6076 41.8029 64.1933 43.3887L64.4678 43.8066ZM72.5684 41.5166V42.0166C75.7015 42.0166 78.2811 42.5764 80.3316 43.667L80.5664 43.2256L80.8012 42.7842C78.5678 41.5962 75.8155 41.0166 72.5684 41.0166V41.5166ZM80.5664 43.2256L80.3335 43.668C82.4063 44.759 83.9482 46.3344 84.9718 48.4034L85.4199 48.1816L85.8681 47.9599C84.7498 45.6995 83.0559 43.9708 80.7993 42.7831L80.5664 43.2256ZM85.4199 48.1816L84.9746 48.409C86.0243 50.4646 86.5605 52.9688 86.5605 55.9404H87.0605H87.5605C87.5605 52.8508 87.0031 50.1825 85.8652 47.9543L85.4199 48.1816ZM87.0605 55.9404H86.5605C86.5605 57.6278 86.3386 59.2449 85.8962 60.7933L86.377 60.9307L86.8577 61.068C87.3268 59.4264 87.5605 57.7166 87.5605 55.9404H87.0605ZM86.377 60.9307L85.8962 60.7933C85.4516 62.3494 84.8058 63.8984 83.9566 65.4404L84.3945 65.6816L84.8325 65.9228C85.715 64.3204 86.3909 62.702 86.8577 61.068L86.377 60.9307ZM84.3945 65.6816L83.9581 65.4377C83.1064 66.9618 82.05 68.5359 80.787 70.1598L81.1816 70.4668L81.5763 70.7738C82.8653 69.1165 83.9509 67.5004 84.831 65.9256L84.3945 65.6816ZM81.1816 70.4668L80.787 70.1598C79.5196 71.7893 78.0579 73.5232 76.401 75.3616L76.7725 75.6963L77.1439 76.031C78.8139 74.178 80.2916 72.4255 81.5763 70.7738L81.1816 70.4668ZM76.7725 75.6963L76.3358 75.4528L72.2 82.8698L72.6367 83.1133L73.0734 83.3568L77.2092 75.9398L76.7725 75.6963ZM72.6367 83.1133V83.6133H87.8809V83.1133V82.6133H72.6367V83.1133Z" fill="#ABB1CC" mask="url(#path-2-outside-1_321_5804)"/>
</g>
<path d="M72.165 47.2039C72.165 47.2039 73.1553 48.6365 76.3094 50.6468C76.5454 50.7953 76.793 50.9488 77.0538 51.104C78.0441 51.6965 79.2077 52.327 80.5825 52.9806L80.9126 44.5631C80.9126 44.5631 85.2039 44.8932 89 43.2427C88.5626 43.0248 86.6778 42.0098 83.9677 39.9087C83.725 39.7222 83.4725 39.5242 83.2183 39.3179C82.0201 38.354 80.6848 37.1937 79.2572 35.8155C77.1165 39.4466 72.165 47.2039 72.165 47.2039Z" fill="url(#paint2_linear_321_5804)"/>
<path d="M37.835 46.7087C37.835 46.7087 36.8447 48.1414 33.6906 50.1516C33.4546 50.3002 33.207 50.4537 32.9462 50.6088C31.9559 51.2014 30.8006 51.8318 29.4175 52.4854L29.0874 44.068C29.0874 44.068 24.7961 44.3981 21 42.7476C21.4374 42.5297 23.3222 41.5147 26.0323 39.4136C26.275 39.2271 26.5275 39.029 26.7817 38.8227C27.9799 37.8588 29.3151 36.6985 30.7428 35.3204C32.8835 38.9515 37.835 46.7087 37.835 46.7087Z" fill="url(#paint3_linear_321_5804)"/>
<path d="M33.6905 50.1517C33.4545 50.3002 33.2069 50.4537 32.9461 50.6088C32.3569 48.6959 30.0082 44.4707 29.0873 43.2427C28.4391 42.3617 27.7217 41.5338 26.9416 40.767C26.6363 40.4617 26.2682 39.8427 26.0322 39.4136C26.2748 39.2271 26.5274 39.029 26.7815 38.8227C27.0819 39.2981 27.5375 40.0094 27.9369 40.6019C28.5971 41.5922 32.7233 46.8738 33.2184 47.8641C33.5436 48.521 33.6525 49.5393 33.6905 50.1517Z" fill="#9925E8"/>
<path d="M55.0005 0.000335693C69.7671 0.00056144 81.7377 11.971 81.7378 26.7376C81.7378 41.5044 69.7672 53.4757 55.0005 53.4759C40.2336 53.4759 28.2622 41.5046 28.2622 26.7376C28.2623 11.9708 40.2336 0.000335693 55.0005 0.000335693ZM55.0005 6.43686C43.7886 6.43686 34.6988 15.5258 34.6987 26.7376C34.6987 37.9496 43.7886 47.0384 55.0005 47.0384C66.2122 47.0382 75.3013 37.9494 75.3013 26.7376C75.3012 15.526 66.2121 6.43709 55.0005 6.43686Z" fill="#6C7E92"/>
<mask id="mask0_321_5804" style="mask-type:alpha" maskUnits="userSpaceOnUse" x="28" y="0" width="54" height="54">
<path d="M55.0005 0.000335693C69.7671 0.00056144 81.7377 11.971 81.7378 26.7376C81.7378 41.5044 69.7672 53.4757 55.0005 53.4759C40.2336 53.4759 28.2622 41.5046 28.2622 26.7376C28.2623 11.9708 40.2336 0.000335693 55.0005 0.000335693ZM55.0005 6.43686C43.7886 6.43686 34.6988 15.5258 34.6987 26.7376C34.6987 37.9496 43.7886 47.0384 55.0005 47.0384C66.2122 47.0382 75.3013 37.9494 75.3013 26.7376C75.3012 15.526 66.2121 6.43709 55.0005 6.43686Z" fill="#6C7E92"/>
</mask>
<g mask="url(#mask0_321_5804)">
<g filter="url(#filter0_f_321_5804)">
<ellipse cx="38.6564" cy="9.12242" rx="6.1068" ry="12.3786" transform="rotate(42.5525 38.6564 9.12242)" fill="#F0F2F7"/>
</g>
<g filter="url(#filter1_f_321_5804)">
<ellipse cx="72.2547" cy="9.12243" rx="6.1068" ry="12.3786" transform="rotate(150 72.2547 9.12243)" fill="#F0F2F7"/>
</g>
<g filter="url(#filter2_f_321_5804)">
<ellipse cx="69.8868" cy="44.9255" rx="6.1068" ry="12.3786" transform="rotate(-135 69.8868 44.9255)" fill="#F0F2F7"/>
</g>
<g filter="url(#filter3_f_321_5804)">
<ellipse cx="38.8576" cy="42.6149" rx="6.1068" ry="12.3786" transform="rotate(-45 38.8576 42.6149)" fill="#889BAF"/>
</g>
</g>
<circle cx="54.9999" cy="26.7379" r="20.301" fill="url(#paint4_linear_321_5804)"/>
<circle cx="54.9999" cy="26.7379" r="17.801" stroke="url(#paint5_linear_321_5804)" stroke-width="5"/>
<path d="M54.9998 4.95097C67.0321 4.95097 76.7869 14.7058 76.7869 26.7381C76.7867 38.7703 67.032 48.5242 54.9998 48.5242C42.9677 48.5241 33.2137 38.7702 33.2136 26.7381C33.2136 14.7059 42.9676 4.95112 54.9998 4.95097ZM54.9998 6.4373C43.788 6.43745 34.699 15.5263 34.699 26.7381C34.6991 37.9498 43.788 47.0387 54.9998 47.0389C66.2116 47.0389 75.3004 37.9499 75.3005 26.7381C75.3005 15.5262 66.2117 6.4373 54.9998 6.4373Z" fill="url(#paint6_linear_321_5804)"/>
<path d="M60.115 36.4257C59.8375 36.4254 59.5642 36.3568 59.3195 36.226L55.147 34.0342C55.0916 34.005 55.0298 33.9897 54.9671 33.9897C54.9044 33.9897 54.8427 34.005 54.7872 34.0342L50.6148 36.226C50.37 36.3568 50.0968 36.4254 49.8193 36.4257C49.5704 36.4249 49.3248 36.3699 49.0994 36.2646C48.8739 36.1592 48.6742 36.006 48.514 35.8157C48.3537 35.6253 48.2369 35.4023 48.1716 35.1622C48.1063 34.9221 48.0941 34.6706 48.1358 34.4253L48.933 29.7809C48.9436 29.7188 48.939 29.6551 48.9194 29.5953C48.8999 29.5355 48.866 29.4813 48.8207 29.4376L45.4471 26.1481C45.2192 25.9255 45.0581 25.6436 44.9818 25.3342C44.9056 25.0249 44.9173 24.7004 45.0156 24.3973C45.1139 24.0943 45.295 23.8247 45.5383 23.6191C45.7817 23.4134 46.0777 23.2798 46.3929 23.2334L51.0571 22.5567C51.1194 22.5473 51.1784 22.5231 51.2293 22.486C51.2801 22.4489 51.3213 22.4002 51.3493 22.3438L53.4355 18.1169C53.5766 17.8312 53.7948 17.5906 54.0655 17.4224C54.3361 17.2542 54.6485 17.1651 54.9671 17.1651C55.2858 17.1651 55.5981 17.2542 55.8688 17.4224C56.1395 17.5906 56.3577 17.8312 56.4988 18.1169L58.585 22.3438C58.613 22.4002 58.6541 22.4489 58.705 22.486C58.7559 22.5231 58.8149 22.5473 58.8771 22.5567L63.5414 23.2334C63.8566 23.2798 64.1526 23.4134 64.3959 23.6191C64.6393 23.8247 64.8203 24.0943 64.9187 24.3973C65.017 24.7004 65.0287 25.0249 64.9525 25.3342C64.8762 25.6436 64.715 25.9255 64.4871 26.1481L61.1135 29.4376C61.0683 29.4813 61.0344 29.5355 61.0148 29.5953C60.9953 29.6551 60.9906 29.7188 61.0013 29.7809L61.7985 34.4253C61.8402 34.6706 61.828 34.9221 61.7627 35.1622C61.6974 35.4023 61.5805 35.6253 61.4203 35.8157C61.2601 36.006 61.0603 36.1592 60.8349 36.2646C60.6095 36.3699 60.3638 36.4249 60.115 36.4257Z" fill="#053A4C"/>
<path d="M55.9072 18.4101L57.9935 22.637C58.0689 22.7891 58.1801 22.9206 58.3175 23.0203C58.4549 23.1201 58.6144 23.1851 58.7824 23.2097L63.4467 23.8881C63.6402 23.9162 63.8219 23.9979 63.9714 24.1239C64.1209 24.25 64.2322 24.4153 64.2926 24.6013C64.3531 24.7872 64.3603 24.9864 64.3134 25.1762C64.2666 25.3661 64.1676 25.539 64.0276 25.6756L60.6524 28.965C60.5309 29.0837 60.4401 29.2301 60.3878 29.3917C60.3354 29.5533 60.3232 29.7252 60.352 29.8925L61.1475 34.5387C61.181 34.7314 61.1598 34.9297 61.0863 35.111C61.0127 35.2924 60.8898 35.4494 60.7315 35.5644C60.5732 35.6794 60.3859 35.7477 60.1907 35.7616C59.9955 35.7754 59.8004 35.7343 59.6274 35.6428L55.4633 33.451C55.3127 33.3714 55.145 33.3297 54.9747 33.3297C54.8044 33.3297 54.6367 33.3714 54.4862 33.451L50.3088 35.6428C50.1358 35.7343 49.9407 35.7754 49.7455 35.7616C49.5504 35.7477 49.363 35.6794 49.2047 35.5644C49.0464 35.4494 48.9235 35.2924 48.85 35.111C48.7764 34.9297 48.7552 34.7314 48.7887 34.5387L49.5842 29.8925C49.6131 29.7252 49.6008 29.5533 49.5485 29.3917C49.4961 29.2301 49.4053 29.0837 49.2838 28.965L45.9086 25.6756C45.7686 25.539 45.6696 25.3661 45.6228 25.1762C45.576 24.9864 45.5832 24.7872 45.6436 24.6013C45.7041 24.4153 45.8153 24.25 45.9648 24.1239C46.1143 23.9979 46.2961 23.9162 46.4896 23.8881L51.1538 23.2097C51.3218 23.1851 51.4813 23.1201 51.6187 23.0203C51.7561 22.9206 51.8673 22.7891 51.9428 22.637L54.029 18.4101C54.1152 18.2346 54.2489 18.0868 54.4149 17.9834C54.5809 17.88 54.7726 17.8252 54.9681 17.8252C55.1637 17.8252 55.3553 17.88 55.5213 17.9834C55.6873 18.0868 55.821 18.2346 55.9072 18.4101Z" fill="url(#paint7_linear_321_5804)"/>
<path opacity="0.15" d="M75.9612 10.1505C74.7048 11.6541 73.5618 12.8152 72.1677 14.1651C72.0645 14.2676 71.9612 14.3701 71.8579 14.4726C71.7891 14.541 71.7374 14.5922 71.6686 14.6606C71.4104 14.8998 71.1523 15.1561 70.8769 15.3953C70.7736 15.4808 70.6876 15.5662 70.5843 15.6687C70.5155 15.72 70.4466 15.7883 70.395 15.8396C70.3089 15.925 70.2229 15.9934 70.1368 16.0617C60.9805 24.1097 49.3458 29.0136 37.0571 29.9021C36.9366 29.9021 36.8333 29.9192 36.7129 29.9192C36.6268 29.9192 36.5407 29.9363 36.4547 29.9363C36.317 29.9363 36.1965 29.9534 36.0588 29.9534C35.6113 29.9705 35.1639 30.0047 34.7164 30.0047C34.5787 30.0047 34.4238 30.0217 34.2861 30.0217C33.9419 30.0388 33.5976 30.0388 33.2706 30.0388C31.67 30.0388 30.0694 29.9876 28.4515 29.8509C28.3311 28.8427 28.2622 27.8004 28.2622 26.7581C28.2622 11.9779 40.3272 0 55.1976 0C61.8927 0 67.8619 2.56942 72.5777 6.60194C73.7997 7.64424 74.9286 8.90314 75.9612 10.1505Z" fill="url(#paint8_linear_321_5804)"/>
<circle cx="55" cy="85" r="16" fill="url(#paint9_linear_321_5804)"/>
<path d="M55.0001 78.3333C54.116 78.3333 53.2682 78.6845 52.6431 79.3096C52.0179 79.9348 51.6667 80.7826 51.6667 81.6667C51.6667 82.5507 52.0179 83.3986 52.6431 84.0237C53.2682 84.6488 54.116 85 55.0001 85C55.8841 85 56.732 84.6488 57.3571 84.0237C57.9822 83.3986 58.3334 82.5507 58.3334 81.6667C58.3334 80.7826 57.9822 79.9348 57.3571 79.3096C56.732 78.6845 55.8841 78.3333 55.0001 78.3333ZM59.0071 86.3333H50.9931C50.2617 86.3333 49.6667 86.9283 49.6667 87.6597V88.1667C49.6667 89.2707 50.2951 90.2253 51.4357 90.8543C52.3847 91.3783 53.6507 91.6667 55.0001 91.6667C57.5687 91.6667 60.3334 90.5713 60.3334 88.1667V87.6597C60.3334 86.9283 59.7384 86.3333 59.0071 86.3333Z" fill="#DDE3F0"/>
<defs>
<filter id="filter0_f_321_5804" x="-29.8489" y="-59.8904" width="137.01" height="138.026" filterUnits="userSpaceOnUse" color-interpolation-filters="sRGB">
<feFlood flood-opacity="0" result="BackgroundImageFix"/>
<feBlend mode="normal" in="SourceGraphic" in2="BackgroundImageFix" result="shape"/>
<feGaussianBlur stdDeviation="29.5" result="effect1_foregroundBlur_321_5804"/>
</filter>
<filter id="filter1_f_321_5804" x="5.11353" y="-61.027" width="134.282" height="140.299" filterUnits="userSpaceOnUse" color-interpolation-filters="sRGB">
<feFlood flood-opacity="0" result="BackgroundImageFix"/>
<feBlend mode="normal" in="SourceGraphic" in2="BackgroundImageFix" result="shape"/>
<feGaussianBlur stdDeviation="29.5" result="effect1_foregroundBlur_321_5804"/>
</filter>
<filter id="filter2_f_321_5804" x="1.12427" y="-23.8369" width="137.525" height="137.525" filterUnits="userSpaceOnUse" color-interpolation-filters="sRGB">
<feFlood flood-opacity="0" result="BackgroundImageFix"/>
<feBlend mode="normal" in="SourceGraphic" in2="BackgroundImageFix" result="shape"/>
<feGaussianBlur stdDeviation="29.5" result="effect1_foregroundBlur_321_5804"/>
</filter>
<filter id="filter3_f_321_5804" x="-29.9048" y="-26.1475" width="137.525" height="137.525" filterUnits="userSpaceOnUse" color-interpolation-filters="sRGB">
<feFlood flood-opacity="0" result="BackgroundImageFix"/>
<feBlend mode="normal" in="SourceGraphic" in2="BackgroundImageFix" result="shape"/>
<feGaussianBlur stdDeviation="29.5" result="effect1_foregroundBlur_321_5804"/>
</filter>
<linearGradient id="paint0_linear_321_5804" x1="99.5673" y1="141" x2="99.5673" y2="27" gradientUnits="userSpaceOnUse">
<stop stop-color="#1D2766"/>
<stop offset="1" stop-color="#171F52"/>
</linearGradient>
<linearGradient id="paint1_linear_321_5804" x1="54.5" y1="27" x2="54.5" y2="141" gradientUnits="userSpaceOnUse">
<stop stop-color="#243189"/>
<stop offset="1" stop-color="#1B2565"/>
</linearGradient>
<linearGradient id="paint2_linear_321_5804" x1="84.1311" y1="48.0291" x2="75.5485" y2="42.665" gradientUnits="userSpaceOnUse">
<stop offset="0.01" stop-color="#9D00FF"/>
<stop offset="0.41" stop-color="#7B00DB"/>
<stop offset="0.53" stop-color="#9825E4"/>
<stop offset="0.62" stop-color="#6800B5"/>
<stop offset="1" stop-color="#400071"/>
</linearGradient>
<linearGradient id="paint3_linear_321_5804" x1="24.6921" y1="48.0209" x2="34.7155" y2="41.0014" gradientUnits="userSpaceOnUse">
<stop offset="0.01" stop-color="#9D00FF"/>
<stop offset="0.41" stop-color="#7B00DB"/>
<stop offset="0.53" stop-color="#9825E4"/>
<stop offset="0.62" stop-color="#6800B5"/>
<stop offset="1" stop-color="#400071"/>
</linearGradient>
<linearGradient id="paint4_linear_321_5804" x1="54.9999" y1="6.43689" x2="54.9999" y2="47.0388" gradientUnits="userSpaceOnUse">
<stop stop-color="#2A99A4"/>
<stop offset="0.484375" stop-color="#10667B"/>
<stop offset="1" stop-color="#184A61"/>
</linearGradient>
<linearGradient id="paint5_linear_321_5804" x1="54.9999" y1="6.43689" x2="54.9999" y2="47.0388" gradientUnits="userSpaceOnUse">
<stop stop-color="#3F879B"/>
<stop offset="1" stop-color="#062C3C"/>
</linearGradient>
<linearGradient id="paint6_linear_321_5804" x1="55.0002" y1="4.95097" x2="55.0002" y2="48.5242" gradientUnits="userSpaceOnUse">
<stop stop-color="#3C4E56"/>
<stop offset="1" stop-color="#ADBED2"/>
</linearGradient>
<linearGradient id="paint7_linear_321_5804" x1="54.9681" y1="17.9991" x2="54.9681" y2="33.6127" gradientUnits="userSpaceOnUse">
<stop offset="0.08" stop-color="#C8D0E5"/>
<stop offset="0.23" stop-color="#FAFAFA"/>
<stop offset="0.39" stop-color="#C8D1E2"/>
<stop offset="0.59" stop-color="#566B7C"/>
<stop offset="1" stop-color="#A9B8CF"/>
</linearGradient>
<linearGradient id="paint8_linear_321_5804" x1="40.8658" y1="4.12193" x2="55.9702" y2="25.2637" gradientUnits="userSpaceOnUse">
<stop offset="0.5084" stop-color="white" stop-opacity="0"/>
<stop offset="1" stop-color="white"/>
</linearGradient>
<linearGradient id="paint9_linear_321_5804" x1="55" y1="69" x2="55" y2="101" gradientUnits="userSpaceOnUse">
<stop stop-color="#369DE4"/>
<stop offset="1" stop-color="#045CB9"/>
</linearGradient>
</defs>
</svg>
